<svg width="71" height="19" viewBox="0 0 71 19" fill="none" xmlns="http://www.w3.org/2000/svg">
<path d="M42.9079 5.7583C41.7759 5.7583 40.8855 5.9957 39.9952 6.47404C39.9952 3.92642 39.9952 1.61975 40.0781 0.82605L34.6528 1.77919V2.25754L35.2188 2.33549C35.9469 2.49494 36.1921 2.89178 36.3507 3.84847C36.5129 5.7583 36.4336 15.9452 36.3507 17.6141C37.807 17.933 39.3463 18.1704 40.8855 18.1704C45.1753 18.1704 47.7672 15.5449 47.7672 11.4063C47.7672 8.14647 45.662 5.7583 42.9079 5.7583ZM41.0478 17.2952C40.7233 17.2952 40.3196 17.2952 40.0745 17.2173C39.9915 16.1047 39.9122 11.4063 39.9916 7.27128C40.4782 7.11184 40.8026 7.03388 41.2064 7.03388C42.9872 7.03388 43.9605 9.10316 43.9605 11.6472C43.9641 14.8291 42.7492 17.2952 41.0478 17.2952ZM14.2494 1.1414H-0.000488281V1.85715L0.8106 1.9351C1.86321 2.09455 2.26695 2.73234 2.42917 4.24178C2.6743 7.10829 2.59139 12.2815 2.42917 14.7441C2.26695 16.2571 1.86321 16.9728 0.8106 17.0507L-0.000488281 17.2102V17.848H9.14858V17.2102L8.17528 17.0507C7.12266 16.9728 6.71892 16.2571 6.55671 14.7441C6.47379 13.7094 6.39449 12.037 6.39449 9.96772L8.33749 10.0457C9.55232 10.0457 10.1183 11.0024 10.3598 12.3524H11.088V6.71144H10.3598C10.1183 8.06498 9.55232 9.02167 8.33749 9.02167L6.39449 9.10316C6.39449 6.39609 6.47379 3.85201 6.55671 2.33903H9.39011C11.5782 2.33903 12.7102 3.69257 13.5176 6.08074L14.3287 5.84334L14.2494 1.1414Z" fill="#869AAF"/>
<path d="M18.8663 5.59874C22.9145 5.59874 24.9404 8.30581 24.9404 11.8845C24.9404 15.3073 22.673 18.1738 18.6247 18.1738C14.5765 18.1738 12.5542 15.4668 12.5542 11.8845C12.5506 8.46171 14.818 5.59874 18.8663 5.59874ZM18.6247 6.39598C16.844 6.39598 16.3573 8.78415 16.3573 11.8881C16.3573 14.9105 17.1684 17.3802 18.787 17.3802C20.6471 17.3802 21.1337 14.992 21.1337 11.8881C21.1337 8.8621 20.3226 6.39598 18.6247 6.39598ZM48.8225 11.966C48.8225 8.70265 50.9277 5.59874 55.0552 5.59874C58.4546 5.59874 60.0731 8.06486 60.0731 11.3282H52.5426C52.4597 14.2727 53.9197 16.4199 56.8324 16.4199C58.1265 16.4199 58.7754 16.101 59.5865 15.5447L59.9109 15.9416C59.0998 17.0542 57.319 18.1703 55.0552 18.1703C51.4107 18.1738 48.8225 15.6262 48.8225 11.966ZM52.5462 10.453L56.3529 10.3715C56.3529 8.78061 56.1114 6.39243 54.7344 6.39243C53.3573 6.39598 52.6255 8.62116 52.5462 10.453ZM69.7125 6.23653C68.7392 5.83968 67.445 5.59874 65.9887 5.59874C62.9931 5.59874 61.1294 7.34912 61.1294 9.4184C61.1294 11.4877 62.5028 12.3629 64.4494 13.0007C66.4717 13.7164 67.0413 14.2727 67.0413 15.2294C67.0413 16.1861 66.3131 17.0577 65.0154 17.0577C63.4761 17.0577 62.3442 16.1825 61.4538 13.7944L60.8878 13.9538L60.9707 17.4546C61.944 17.8514 63.7248 18.1703 65.2605 18.1703C68.4183 18.1703 70.4443 16.5794 70.4443 14.1132C70.4443 12.4408 69.5539 11.4877 67.4486 10.6904C65.1812 9.81524 64.3737 9.25895 64.3737 8.22431C64.3737 7.18967 65.1019 6.47393 66.0752 6.47393C67.5315 6.47393 68.5048 7.34912 69.233 9.49989L69.799 9.34044L69.7125 6.23653ZM35.4629 5.91763C34.0859 5.12394 31.6562 5.52078 30.3621 8.38376L30.4414 5.59874L25.0197 6.63338V7.11172L25.5857 7.18967C26.3139 7.27117 26.6383 7.66801 26.7212 8.70265C26.8834 10.6125 26.8005 13.9538 26.7212 15.6262C26.6383 16.5794 26.3175 17.0577 25.5857 17.1392L25.0197 17.2207V17.8585H32.5502V17.2207L31.5769 17.1392C30.7658 17.0577 30.5243 16.5829 30.4414 15.6262C30.2792 14.1132 30.2792 11.0908 30.3621 9.181C30.7658 8.6247 32.5466 8.14636 34.1652 9.181L35.4629 5.91763Z" fill="#869AAF"/>
</svg>
