<svg width="106" height="19" viewBox="0 0 106 19" fill="none" xmlns="http://www.w3.org/2000/svg">
<path fill-rule="evenodd" clip-rule="evenodd" d="M15.6053 0.843707C15.1361 0.843707 14.6668 0.843707 14.1976 0.843707C14.1455 0.843707 14.0933 0.826522 14.076 0.895251C14.0586 0.963979 14.0412 1.01553 14.0065 1.06707C13.9543 1.20453 13.8848 1.34199 13.8153 1.47945C13.7631 1.63409 13.711 1.78872 13.6589 1.94336C13.6415 2.01209 13.6067 2.098 13.5894 2.16673C13.5546 2.26982 13.5025 2.35573 13.4677 2.45882C13.4503 2.47601 13.4503 2.49319 13.4503 2.52755C13.4156 2.59628 13.3634 2.68219 13.3461 2.75092C13.3113 2.83683 13.2939 2.93992 13.2592 3.04302C13.207 3.18047 13.1201 3.31793 13.068 3.45539C13.0159 3.61003 12.9637 3.76467 12.9116 3.91931C12.8942 3.98803 12.8595 4.07395 12.8421 4.14268C12.7899 4.28013 12.7204 4.41759 12.6509 4.55505C12.6162 4.64096 12.5988 4.72687 12.564 4.81278C12.4945 4.9846 12.425 5.15642 12.3555 5.32824C12.3207 5.39697 12.3033 5.48288 12.2686 5.55161C12.2338 5.63752 12.1817 5.72343 12.1469 5.82652C12.1122 5.91243 12.0948 5.99834 12.06 6.08425C12.0427 6.15298 12.0079 6.22171 11.9731 6.30762C11.9384 6.39353 11.9036 6.46226 11.8689 6.54817C11.8341 6.63408 11.8167 6.71999 11.782 6.78872C11.7472 6.87463 11.6951 6.96054 11.6603 7.04645C11.6256 7.13236 11.6082 7.21827 11.5734 7.30419C11.5561 7.37291 11.5213 7.44164 11.5039 7.51037C11.4692 7.61346 11.417 7.71656 11.3823 7.81965C11.3475 7.88838 11.3301 7.97429 11.2954 8.04301C11.2606 8.12892 11.2085 8.21484 11.1737 8.30075C11.139 8.38666 11.1216 8.47257 11.0868 8.57566C11.0695 8.64439 11.0347 8.7303 10.9999 8.79903C10.9652 8.88494 10.9304 8.97085 10.8957 9.03958C10.8609 9.12549 10.8435 9.22858 10.8088 9.31449C10.7566 9.45195 10.6871 9.58941 10.6176 9.72687C10.5655 9.86432 10.5133 10.0018 10.4612 10.1564C10.4438 10.1564 10.4438 10.1564 10.4264 10.1564C10.3917 10.0705 10.3569 9.96741 10.3222 9.8815C10.2874 9.79559 10.27 9.72687 10.2353 9.64095C10.2005 9.55504 10.1484 9.46913 10.1136 9.38322C10.0789 9.29731 10.0615 9.2114 10.0267 9.12549C9.99198 9.0224 9.93984 8.9193 9.90509 8.79903C9.87033 8.7303 9.85295 8.64439 9.81819 8.57566C9.78343 8.48975 9.7313 8.40384 9.69654 8.31793C9.66179 8.23202 9.64441 8.14611 9.60965 8.0602C9.57489 7.9571 9.52276 7.85401 9.488 7.75092C9.45324 7.68219 9.43586 7.59628 9.40111 7.52755C9.34897 7.39009 9.27945 7.25264 9.20994 7.11518C9.14042 6.94336 9.07091 6.77154 9.0014 6.58253C8.93188 6.41071 8.86237 6.22171 8.79285 6.04989C8.74072 5.89525 8.68858 5.74061 8.63644 5.58597C8.63644 5.56879 8.61907 5.55161 8.61907 5.55161C8.58431 5.48288 8.53217 5.41415 8.51479 5.32824C8.48003 5.24233 8.46266 5.13924 8.4279 5.03614C8.41052 4.9846 8.37576 4.91587 8.35839 4.86432C8.32363 4.77841 8.27149 4.6925 8.23673 4.58941C8.20198 4.5035 8.1846 4.41759 8.14984 4.33167C8.11508 4.22858 8.06295 4.12549 8.02819 4.0224C7.99343 3.95367 7.97605 3.86776 7.9413 3.79903C7.90654 3.71312 7.8544 3.62721 7.81965 3.5413C7.78489 3.45539 7.76751 3.36948 7.73275 3.28357C7.71537 3.21484 7.68062 3.14611 7.64586 3.0602C7.6111 2.97429 7.57634 2.90556 7.54159 2.81965C7.50683 2.73374 7.48945 2.63065 7.45469 2.54474C7.40256 2.3901 7.33304 2.23546 7.26353 2.08082C7.22877 2.01209 7.21139 1.92618 7.17664 1.85745C7.14188 1.75436 7.08974 1.65127 7.05498 1.54817C7.02023 1.47945 7.00285 1.39353 6.96809 1.3248C6.93333 1.23889 6.8812 1.15299 6.84644 1.04989C6.82906 0.946801 6.77693 0.895251 6.65528 0.895251C4.69149 0.895251 2.71032 0.895251 0.746529 0.895251H0.624878V0.998345C0.624878 6.58253 0.624878 12.1667 0.624878 17.7509C0.624878 17.8884 0.624878 17.9056 0.781286 17.9056C2.1542 17.9056 3.52712 17.9056 4.90003 17.9056C5.05644 17.9056 5.05644 17.9056 5.05644 17.7337C5.05644 16.2904 5.05644 14.8471 5.05644 13.4038C5.05644 11.2733 5.05644 9.12549 5.05644 6.9949C5.05644 6.94336 5.05644 6.89181 5.07382 6.82308C5.0912 6.82308 5.0912 6.82308 5.10857 6.82308C5.12595 6.87463 5.12595 6.909 5.14333 6.96054C5.17809 7.04645 5.23022 7.14955 5.26498 7.23546C5.29974 7.32137 5.31712 7.40728 5.35188 7.49319C5.38663 7.59628 5.43877 7.69937 5.47353 7.80247C5.50828 7.87119 5.52566 7.9571 5.56042 8.02583C5.59518 8.12892 5.64731 8.23202 5.68207 8.33511C5.71683 8.42102 5.73421 8.48975 5.76896 8.57566C5.80372 8.66157 5.85586 8.7303 5.87324 8.81621C5.90799 8.90212 5.92537 9.00521 5.96013 9.09112C5.97751 9.15985 5.99489 9.2114 6.02964 9.26295C6.0644 9.34886 6.11654 9.43477 6.15129 9.52068C6.18605 9.60659 6.20343 9.6925 6.23819 9.77841C6.29032 9.91587 6.35984 10.0533 6.42935 10.1736C6.49887 10.3454 6.56838 10.5172 6.6379 10.7062C6.69003 10.8609 6.74217 11.0155 6.7943 11.153C6.81168 11.2217 6.84644 11.3076 6.8812 11.3763C6.91596 11.4794 6.96809 11.5825 7.00285 11.6856C7.00285 11.7028 7.02023 11.72 7.02023 11.7544C7.05498 11.8403 7.08974 11.909 7.1245 11.9949C7.15926 12.0808 7.17664 12.1839 7.21139 12.2698C7.26353 12.4073 7.33304 12.5447 7.40256 12.665C7.45469 12.7681 7.48945 12.8884 7.54159 13.0086C7.59372 13.1633 7.64586 13.3179 7.698 13.4726C7.71537 13.5413 7.75013 13.61 7.78489 13.6959C7.8544 13.8506 7.90654 14.0052 7.97605 14.1599C8.01081 14.2458 8.02819 14.3145 8.06295 14.4004C8.0977 14.4863 8.14984 14.5722 8.1846 14.6581C8.20198 14.7097 8.23673 14.7784 8.25411 14.83C8.28887 14.9159 8.30625 15.0018 8.34101 15.0877C8.37576 15.1736 8.4279 15.2767 8.46266 15.3626C8.49741 15.4485 8.51479 15.5344 8.54955 15.6203C8.58431 15.7234 8.63644 15.8265 8.6712 15.9468C8.70596 16.0155 8.72334 16.1014 8.75809 16.1702C8.79285 16.2733 8.84499 16.3763 8.87975 16.4794C8.9145 16.5482 8.93188 16.6341 8.96664 16.7028C9.0014 16.7887 9.05353 16.8746 9.08829 16.9605C9.12305 17.0293 9.14042 17.0808 9.1578 17.1495C9.19256 17.2354 9.20994 17.3214 9.2447 17.3901C9.27945 17.4932 9.34897 17.5963 9.36635 17.6994C9.4011 17.8196 9.488 17.9227 9.62703 17.9227C10.1831 17.9227 10.7393 17.9227 11.2954 17.9227C11.3301 17.9227 11.3823 17.8884 11.417 17.8712C11.5039 17.8368 11.4692 17.7509 11.5039 17.6822C11.5561 17.5447 11.643 17.4073 11.6951 17.2698C11.7472 17.1152 11.7994 16.9605 11.8515 16.8059C11.8689 16.7372 11.9036 16.6513 11.9384 16.5825C11.9731 16.5138 12.0079 16.4279 12.0427 16.3592C12.0774 16.2732 12.0948 16.1702 12.1296 16.0671C12.1469 15.9983 12.1643 15.9468 12.1991 15.8952C12.2338 15.8093 12.286 15.7062 12.3207 15.6203C12.3555 15.5344 12.3729 15.4485 12.4076 15.3798C12.4424 15.2939 12.4945 15.208 12.5293 15.1221C12.564 15.0361 12.5814 14.9502 12.6162 14.8643C12.6335 14.7956 12.6683 14.7097 12.7031 14.6409C12.7378 14.5722 12.7726 14.5035 12.8073 14.4176C12.8421 14.3317 12.8595 14.2458 12.8942 14.1599C12.929 14.0396 12.9811 13.9365 13.0332 13.8162C13.0332 13.799 13.0506 13.7818 13.0506 13.7647C13.0854 13.6788 13.1375 13.61 13.1549 13.5241C13.1897 13.4382 13.207 13.3351 13.2418 13.2492C13.3113 13.0946 13.3634 12.9399 13.433 12.7681C13.4677 12.6994 13.4851 12.6135 13.5198 12.5275C13.5546 12.4416 13.6067 12.3385 13.6415 12.2526C13.6763 12.1667 13.6936 12.0808 13.7284 11.9949C13.7631 11.8918 13.8153 11.7887 13.85 11.6856C13.8848 11.6169 13.9022 11.531 13.9369 11.4623C13.9891 11.3248 14.0586 11.1873 14.1281 11.0499C14.1802 10.8952 14.2324 10.7406 14.2845 10.586C14.3019 10.5172 14.3366 10.4485 14.3714 10.3626C14.4062 10.2767 14.4409 10.1908 14.4757 10.1049C14.5104 10.019 14.5278 9.93305 14.5626 9.84714C14.6321 9.6925 14.6842 9.53786 14.7537 9.38322C14.7885 9.31449 14.8059 9.22858 14.8406 9.15985C14.8754 9.05676 14.9275 8.97085 14.9623 8.86776C14.997 8.78185 15.0144 8.69593 15.0492 8.62721C15.0839 8.54129 15.1361 8.45538 15.1708 8.36947C15.2056 8.28356 15.223 8.19765 15.2577 8.11174C15.3272 7.93992 15.3967 7.7681 15.4663 7.59628C15.4663 7.5791 15.4836 7.56192 15.4836 7.56192C15.5184 7.47601 15.5705 7.40728 15.5879 7.32137C15.6227 7.23546 15.64 7.13236 15.6748 7.04645C15.6922 6.99491 15.7269 6.92618 15.7617 6.87463C15.7791 6.87463 15.7791 6.87463 15.7965 6.87463C15.7965 6.92618 15.8138 6.99491 15.8138 7.04645C15.8138 10.6032 15.8138 14.177 15.8138 17.7337C15.8138 17.9056 15.8486 17.9399 16.0398 17.9399C17.3953 17.9399 18.7508 17.9399 20.089 17.9399C20.2628 17.9399 20.2628 17.9399 20.2628 17.7681V1.06707V0.843707H20.1237H15.6053Z" fill="#869AAF"/>
<path fill-rule="evenodd" clip-rule="evenodd" d="M33.3311 9.50306C33.3137 9.38279 33.3311 9.24534 33.3137 9.12506C33.279 8.97042 33.2442 8.81578 33.1921 8.66114C33.1573 8.54087 33.14 8.42059 33.1226 8.30032C33.1226 8.30032 33.1226 8.28313 33.1052 8.28313C33.0704 8.19722 33.0183 8.11132 32.9835 8.00822C32.9488 7.92231 32.9314 7.8364 32.8967 7.76767C32.8793 7.71612 32.8271 7.66458 32.7924 7.61303C32.7402 7.52712 32.6881 7.44121 32.636 7.37248C32.5665 7.26939 32.5143 7.16629 32.4448 7.08038C32.3405 6.94293 32.2015 6.82266 32.0972 6.70238C31.9234 6.51338 31.7149 6.34156 31.489 6.2041C31.4021 6.15255 31.2978 6.101 31.2109 6.04946C31.0893 5.98073 30.9676 5.912 30.8286 5.86046C30.7765 5.82609 30.7069 5.80891 30.6548 5.79172C30.5679 5.75736 30.4984 5.70582 30.4115 5.67145C30.3072 5.63709 30.203 5.61991 30.1161 5.58554C29.9944 5.55118 29.8901 5.49963 29.7685 5.46527C29.56 5.41372 29.334 5.36217 29.1255 5.32781C28.9343 5.29345 28.7432 5.25908 28.5694 5.25908C28.1001 5.2419 27.6135 5.2419 27.1443 5.2419C26.901 5.2419 26.6751 5.22472 26.4318 5.29344C26.2406 5.36217 26.0321 5.34499 25.8235 5.37935C25.6671 5.39654 25.5107 5.4309 25.3543 5.44808H25.3369C25.1979 5.48245 25.0763 5.53399 24.9372 5.56836C24.833 5.60272 24.7113 5.61991 24.607 5.65427C24.5375 5.67145 24.4506 5.70582 24.3811 5.74018C24.3116 5.77454 24.2247 5.82609 24.1552 5.84327C24.0162 5.89482 23.8597 5.92918 23.7033 5.99791C23.5643 6.04946 23.4253 6.13537 23.3036 6.2041C23.2515 6.23846 23.1994 6.25565 23.1472 6.29001C23.0603 6.34156 22.9734 6.41029 22.8865 6.46183C22.7996 6.51338 22.678 6.56492 22.5911 6.61647C22.4868 6.6852 22.3826 6.78829 22.2783 6.85702C22.1566 6.96011 22.0176 7.04602 21.8786 7.14912C21.896 7.14912 21.896 7.16629 21.9133 7.16629C21.9307 7.21784 21.9481 7.26939 21.9829 7.32094C22.035 7.42403 22.1045 7.52712 22.174 7.6474C22.2262 7.75049 22.2783 7.85358 22.3304 7.93949C22.3826 8.04258 22.4521 8.14568 22.5216 8.24877C22.5737 8.35186 22.6259 8.47214 22.6954 8.57523C22.7649 8.71269 22.8518 8.85014 22.9387 8.97042C23.0082 9.09069 23.0777 9.22815 23.1472 9.34843C23.2167 9.48588 23.3036 9.62334 23.3558 9.7608C23.3905 9.84671 23.46 9.81234 23.4948 9.79516C23.5991 9.72643 23.686 9.62334 23.7902 9.55461C23.9988 9.41716 24.2073 9.31406 24.4159 9.19379C24.6244 9.0907 24.833 8.97042 25.0415 8.88451C25.1631 8.83296 25.3022 8.78142 25.4412 8.74705C25.615 8.69551 25.7714 8.64396 25.9452 8.6096C26.119 8.57523 26.2928 8.54086 26.4665 8.54086C26.6925 8.52368 26.9184 8.54086 27.1443 8.54086C27.2312 8.54086 27.3007 8.54087 27.3876 8.55805C27.5614 8.59241 27.7178 8.64396 27.8916 8.67832C28.048 8.69551 28.1697 8.76423 28.3087 8.81578C28.4825 8.88451 28.6563 8.9876 28.7953 9.10788C28.9169 9.21097 29.0212 9.33125 29.1255 9.4687C29.1776 9.53743 29.2124 9.62334 29.2645 9.70925C29.334 9.81234 29.3862 9.9498 29.3862 10.0701C29.4035 10.4653 29.3862 10.8605 29.3862 11.2556C29.3862 11.3244 29.3862 11.3759 29.3862 11.4275C29.3862 11.4446 29.334 11.4618 29.3166 11.4618C29.2819 11.4275 29.2645 11.3931 29.2298 11.3759C29.1429 11.29 29.0733 11.2213 28.9865 11.1525C28.8648 11.0666 28.7432 10.9979 28.6215 10.912C28.5172 10.8433 28.4303 10.7745 28.3261 10.7402C28.2044 10.6886 28.0828 10.6371 27.9611 10.5855C27.8221 10.5168 27.6831 10.4481 27.5266 10.3965C27.3876 10.3622 27.2486 10.345 27.1096 10.3106C27.0922 10.3106 27.0922 10.3106 27.0748 10.3106C26.9358 10.2763 26.8141 10.2247 26.6751 10.1903C26.5013 10.156 26.3101 10.156 26.1364 10.1388C25.615 10.0873 25.0936 10.1216 24.5897 10.1903C24.4854 10.2075 24.3811 10.2247 24.2595 10.2591C24.2421 10.2591 24.2247 10.2763 24.2073 10.2763C24.0857 10.3106 23.9814 10.345 23.8771 10.3794C23.7902 10.4137 23.686 10.4309 23.5991 10.4653C23.4427 10.534 23.2863 10.6371 23.1298 10.723C23.0256 10.7745 22.9213 10.8089 22.8344 10.8776C22.6954 10.9807 22.5563 11.0838 22.4347 11.2041C22.313 11.3244 22.174 11.4618 22.0697 11.5993C21.9829 11.7024 21.9133 11.8227 21.8438 11.9257C21.7569 12.0632 21.67 12.2178 21.5831 12.3725C21.5484 12.4412 21.531 12.5099 21.5136 12.5615C21.4789 12.6646 21.4615 12.7677 21.4267 12.8708C21.392 12.991 21.3398 13.1285 21.3051 13.2488C21.2703 13.4206 21.2529 13.5924 21.2356 13.7814C21.2182 13.9361 21.2182 14.0907 21.2356 14.2453C21.2529 14.4172 21.2703 14.6062 21.2877 14.778C21.3051 14.9326 21.3398 15.0701 21.3572 15.2247C21.3746 15.3106 21.392 15.3794 21.4267 15.4653C21.4615 15.5512 21.5136 15.6371 21.5484 15.723C21.5831 15.7917 21.6005 15.8776 21.6353 15.9292C21.6874 16.0495 21.7569 16.1525 21.8264 16.2556C21.9133 16.3931 22.0176 16.5306 22.1219 16.668C22.2609 16.8227 22.4173 16.9773 22.5737 17.1147C22.6954 17.2178 22.817 17.3209 22.9561 17.4068C23.043 17.4756 23.1472 17.5099 23.2515 17.5615C23.3731 17.6302 23.4948 17.6989 23.6164 17.7505C23.686 17.7848 23.7729 17.8192 23.8597 17.8536C23.9466 17.8879 24.0335 17.9223 24.1204 17.9567C24.2421 17.991 24.3637 17.991 24.468 18.0426C24.6592 18.1285 24.8503 18.1285 25.0415 18.1457C25.4933 18.1629 25.9452 18.2144 26.3797 18.1113C26.5708 18.0769 26.762 18.0598 26.9532 18.0254C26.9705 18.0254 26.9705 18.0254 26.9879 18.0082C27.0922 17.9739 27.1965 17.9223 27.3007 17.8879C27.405 17.8536 27.5093 17.8364 27.5962 17.802C27.7526 17.7505 27.8916 17.6646 28.048 17.613C28.1001 17.5958 28.1697 17.5615 28.2218 17.5271C28.3434 17.4412 28.4651 17.3553 28.6041 17.2694C28.7258 17.1835 28.8474 17.1319 28.9691 17.046C29.0733 16.9601 29.1602 16.8742 29.2471 16.7883C29.2645 16.7711 29.2819 16.7539 29.2993 16.7367C29.3167 16.7711 29.334 16.7883 29.334 16.8226C29.334 17.1147 29.334 17.3897 29.334 17.6818C29.334 17.8364 29.3688 17.8708 29.5252 17.8708C30.7417 17.8708 31.9408 17.8708 33.1573 17.8708C33.2964 17.8708 33.3485 17.8192 33.3485 17.6818C33.3485 16.3244 33.3659 14.9498 33.3485 13.5924C33.3659 12.2178 33.4528 10.8605 33.3311 9.50306ZM29.195 14.8982C29.0733 15.0185 28.9169 15.1044 28.7605 15.1903C28.6041 15.2591 28.4651 15.345 28.2913 15.3965C28.0654 15.4653 27.8221 15.4996 27.5962 15.534C27.3876 15.5684 27.1965 15.5855 26.9879 15.5684C26.8141 15.5684 26.623 15.5512 26.4665 15.4996C26.2406 15.4309 26.0147 15.345 25.8235 15.2419C25.6498 15.1388 25.4933 15.0013 25.3891 14.8295C25.3196 14.7092 25.2674 14.5718 25.2327 14.4343C25.1979 14.3141 25.1631 14.1938 25.1979 14.0735C25.2153 13.9361 25.2848 13.8158 25.3196 13.6783C25.3717 13.4721 25.5281 13.3347 25.6845 13.1972C25.7714 13.1285 25.8757 13.0769 25.9626 13.0254C26.0321 12.991 26.1016 12.9567 26.1711 12.9051L26.1885 12.8879C26.3101 12.8536 26.4144 12.8364 26.5361 12.802C26.901 12.6989 27.266 12.7161 27.6309 12.7505C27.8047 12.7677 27.9959 12.7677 28.1697 12.8536C28.2566 12.9051 28.3782 12.9051 28.4651 12.9395C28.5346 12.9739 28.6215 13.0082 28.691 13.0426C28.7432 13.0769 28.8127 13.1113 28.8648 13.1285C29.056 13.2316 29.2298 13.3519 29.3514 13.5409C29.3688 13.558 29.3688 13.5924 29.3688 13.6268C29.3688 13.7986 29.3688 13.9532 29.3688 14.1251C29.3688 14.2625 29.3514 14.3828 29.3688 14.5202C29.3862 14.6921 29.2993 14.7952 29.195 14.8982Z" fill="#869AAF"/>
<path fill-rule="evenodd" clip-rule="evenodd" d="M71.8257 9.50306C71.8083 9.38279 71.8257 9.24534 71.8083 9.12506C71.7735 8.97042 71.7388 8.81578 71.6866 8.66114C71.6519 8.54087 71.6345 8.42059 71.6171 8.30032C71.6171 8.30032 71.6171 8.28313 71.5997 8.28313C71.565 8.19722 71.5128 8.11132 71.4781 8.00822C71.4433 7.92231 71.4259 7.8364 71.3912 7.76767C71.3738 7.71612 71.3217 7.66458 71.2869 7.61303C71.2348 7.52712 71.1826 7.44121 71.1305 7.37248C71.061 7.26939 71.0089 7.16629 70.9393 7.08038C70.8351 6.94293 70.696 6.82266 70.5918 6.70238C70.418 6.51338 70.2094 6.34156 69.9835 6.2041C69.8966 6.15255 69.7924 6.101 69.7055 6.04946C69.5838 5.98073 69.4622 5.912 69.3231 5.86046C69.271 5.82609 69.2015 5.80891 69.1493 5.79172C69.0625 5.75736 68.9929 5.70582 68.906 5.67145C68.8018 5.63709 68.6975 5.61991 68.6106 5.58554C68.489 5.55118 68.3847 5.49963 68.263 5.46527C68.0545 5.41372 67.8286 5.36217 67.62 5.32781C67.4289 5.29345 67.2377 5.25908 67.0639 5.25908C66.5947 5.2419 66.1081 5.2419 65.6389 5.2419C65.3956 5.2419 65.1696 5.22472 64.9263 5.29344C64.7352 5.36217 64.5266 5.34499 64.3181 5.37935C64.1617 5.39654 64.0053 5.4309 63.8489 5.44808H63.8315C63.6924 5.48245 63.5708 5.53399 63.4318 5.56836C63.3275 5.60272 63.2058 5.61991 63.1016 5.65427C63.0321 5.67145 62.9452 5.70582 62.8756 5.74018C62.8061 5.77454 62.7192 5.82609 62.6497 5.84327C62.5107 5.89482 62.3543 5.92918 62.2153 5.99791C62.0762 6.04946 61.9372 6.13537 61.8155 6.2041C61.7634 6.23846 61.7113 6.25565 61.6591 6.29001C61.5722 6.34156 61.4854 6.41029 61.3985 6.46183C61.3116 6.51338 61.1899 6.56492 61.103 6.61647C60.9987 6.6852 60.8945 6.78829 60.7902 6.85702C60.6686 6.96011 60.5295 7.04602 60.3905 7.14912C60.4079 7.14912 60.4079 7.16629 60.4253 7.16629C60.4426 7.21784 60.46 7.26939 60.4948 7.32094C60.5469 7.42403 60.6164 7.52712 60.6859 7.6474C60.7381 7.75049 60.7902 7.85358 60.8423 7.93949C60.8945 8.04258 60.964 8.14568 61.0335 8.24877C61.0856 8.35186 61.1378 8.47214 61.2073 8.57523C61.2768 8.71269 61.3637 8.85014 61.4506 8.97042C61.5201 9.09069 61.5896 9.22815 61.6591 9.34843C61.7287 9.48588 61.8155 9.62334 61.8677 9.7608C61.9024 9.84671 61.972 9.81234 62.0067 9.79516C62.111 9.72643 62.1979 9.62334 62.3022 9.55461C62.5107 9.41716 62.7192 9.31406 62.9278 9.19379C63.1363 9.0907 63.3449 8.97042 63.5534 8.88451C63.6751 8.83296 63.8141 8.78142 63.9531 8.74705C64.1269 8.69551 64.2833 8.64396 64.4571 8.6096C64.6309 8.57523 64.8047 8.54086 64.9785 8.54086C65.2044 8.52368 65.4303 8.54086 65.6562 8.54086C65.7431 8.54086 65.8126 8.54087 65.8995 8.55805C66.0733 8.59241 66.2297 8.64396 66.4035 8.67832C66.5599 8.69551 66.6816 8.76423 66.8206 8.81578C66.9944 8.88451 67.1682 8.9876 67.3072 9.10788C67.4289 9.21097 67.5331 9.33125 67.6374 9.4687C67.6895 9.53743 67.7243 9.62334 67.7764 9.70925C67.8459 9.81234 67.8981 9.9498 67.8981 10.0701C67.9155 10.4653 67.8981 10.8605 67.8981 11.2556C67.8981 11.3244 67.8981 11.3759 67.8981 11.4275C67.8981 11.4446 67.8459 11.4618 67.8286 11.4618C67.7938 11.4275 67.7764 11.3931 67.7417 11.3759C67.6548 11.29 67.5853 11.2213 67.4984 11.1525C67.3767 11.0666 67.2551 10.9979 67.1334 10.912C67.0291 10.8433 66.9423 10.7745 66.838 10.7402C66.7163 10.6886 66.5947 10.6371 66.473 10.5855C66.334 10.5168 66.195 10.4481 66.0386 10.3965C65.8995 10.3622 65.7605 10.345 65.6389 10.3106C65.6215 10.3106 65.6215 10.3106 65.6041 10.3106C65.4651 10.2763 65.3434 10.2247 65.2044 10.1903C65.0306 10.156 64.8394 10.156 64.6656 10.1388C64.1443 10.0873 63.6229 10.1216 63.1189 10.1903C63.0147 10.2075 62.9104 10.2247 62.7888 10.2591C62.7714 10.2591 62.754 10.2763 62.7366 10.2763C62.615 10.3106 62.5107 10.345 62.4064 10.3794C62.3195 10.4137 62.2153 10.4309 62.1284 10.4653C61.972 10.534 61.8155 10.6371 61.6591 10.723C61.5549 10.7745 61.4506 10.8089 61.3637 10.8776C61.2247 10.9807 61.0856 11.0838 60.964 11.2041C60.8423 11.3244 60.7033 11.4618 60.599 11.5993C60.5121 11.7024 60.4426 11.8227 60.3731 11.9257C60.2862 12.0632 60.1993 12.2178 60.1124 12.3725C60.0777 12.4412 60.0603 12.5099 60.0429 12.5615C60.0082 12.6646 59.9908 12.7677 59.956 12.8708C59.9213 12.991 59.8691 13.1285 59.8344 13.2488C59.7996 13.4206 59.7822 13.5924 59.7649 13.7814C59.7475 13.9361 59.7475 14.0907 59.7649 14.2453C59.7822 14.4172 59.7996 14.6062 59.817 14.778C59.8344 14.9326 59.8691 15.0701 59.8865 15.2247C59.9039 15.3106 59.9213 15.3794 59.956 15.4653C59.9908 15.5512 60.0429 15.6371 60.0777 15.723C60.1124 15.7917 60.1298 15.8776 60.1646 15.9292C60.2167 16.0495 60.2862 16.1525 60.3557 16.2556C60.4426 16.3931 60.5469 16.5306 60.6512 16.668C60.7902 16.8227 60.9466 16.9773 61.103 17.1147C61.2247 17.2178 61.3463 17.3209 61.4854 17.4068C61.5722 17.4756 61.6765 17.5099 61.7808 17.5615C61.9024 17.6302 62.0241 17.6989 62.1457 17.7505C62.2153 17.7848 62.3022 17.8192 62.389 17.8536C62.4759 17.8879 62.5628 17.9223 62.6497 17.9567C62.7714 17.991 62.893 17.991 62.9973 18.0426C63.1885 18.1285 63.3796 18.1285 63.5708 18.1457C64.0226 18.1629 64.4745 18.2144 64.909 18.1113C65.1001 18.0769 65.2913 18.0598 65.4824 18.0254C65.4998 18.0254 65.4998 18.0254 65.5172 18.0082C65.6215 17.9739 65.7257 17.9223 65.83 17.8879C65.9343 17.8536 66.0386 17.8364 66.1255 17.802C66.2819 17.7505 66.4209 17.6646 66.5773 17.613C66.6294 17.5958 66.699 17.5615 66.7511 17.5271C66.8727 17.4412 66.9944 17.3553 67.1334 17.2694C67.2551 17.1835 67.3767 17.1319 67.4984 17.046C67.6026 16.9601 67.6895 16.8742 67.7764 16.7883C67.7938 16.7711 67.8112 16.7539 67.8286 16.7367C67.8459 16.7711 67.8633 16.7883 67.8633 16.8226C67.8633 17.1147 67.8633 17.3897 67.8633 17.6818C67.8633 17.8364 67.8981 17.8708 68.0545 17.8708C69.271 17.8708 70.4701 17.8708 71.6866 17.8708C71.8257 17.8708 71.8778 17.8192 71.8778 17.6818C71.8778 16.3244 71.8952 14.9498 71.8778 13.5924C71.8604 12.2178 71.9473 10.8605 71.8257 9.50306ZM67.7069 14.8982C67.5853 15.0185 67.4289 15.1044 67.2724 15.1903C67.116 15.2591 66.977 15.345 66.8032 15.3965C66.5773 15.4653 66.334 15.4996 66.1081 15.534C65.8995 15.5684 65.7084 15.5855 65.4998 15.5684C65.326 15.5684 65.1349 15.5512 64.9785 15.4996C64.7525 15.4309 64.5266 15.345 64.3355 15.2419C64.1617 15.1388 64.0053 15.0013 63.901 14.8295C63.8315 14.7092 63.7793 14.5718 63.7446 14.4343C63.7098 14.3141 63.6751 14.1938 63.7098 14.0735C63.7272 13.9361 63.7967 13.8158 63.8315 13.6783C63.8836 13.4721 64.04 13.3347 64.1964 13.1972C64.2833 13.1285 64.3876 13.0769 64.4745 13.0254C64.544 12.991 64.6135 12.9567 64.683 12.9051L64.7004 12.8879C64.8221 12.8536 64.9437 12.8364 65.048 12.802C65.4129 12.6989 65.7779 12.7161 66.1428 12.7505C66.3166 12.7677 66.5078 12.7677 66.6816 12.8536C66.7685 12.9051 66.8901 12.9051 66.977 12.9395C67.0465 12.9739 67.1334 13.0082 67.2029 13.0426C67.2551 13.0769 67.3246 13.1113 67.3767 13.1285C67.5679 13.2316 67.7417 13.3519 67.8633 13.5409C67.8807 13.558 67.8807 13.5924 67.8807 13.6268C67.8807 13.7986 67.8807 13.9532 67.8807 14.1251C67.8807 14.2625 67.8633 14.3828 67.8807 14.5202C67.8981 14.6921 67.8112 14.7952 67.7069 14.8982Z" fill="#869AAF"/>
<path fill-rule="evenodd" clip-rule="evenodd" d="M45.512 12.9566C45.4599 12.8191 45.4251 12.6817 45.373 12.5614C45.3035 12.3896 45.2513 12.2349 45.1471 12.0803C45.0428 11.9256 44.8864 11.7882 44.7647 11.6335C44.5214 11.3414 44.226 11.1181 43.9132 10.9291C43.7394 10.826 43.5482 10.7401 43.3744 10.6542C43.2354 10.6026 43.0964 10.5511 42.9573 10.5167C42.8878 10.4823 42.8009 10.4652 42.714 10.448C42.6272 10.4136 42.5229 10.3621 42.436 10.3277C42.297 10.2933 42.1579 10.2762 42.0189 10.2418C42.0015 10.2418 41.9841 10.2418 41.9668 10.2418C41.8277 10.2074 41.7061 10.1559 41.5671 10.1215C41.3933 10.0872 41.2021 10.07 41.0283 10.0356H41.0109C40.8371 10.0012 40.6634 9.94969 40.4722 9.91533C40.2637 9.88096 40.0551 9.86378 39.8466 9.82942H39.8292C39.6728 9.79505 39.5338 9.74351 39.3773 9.70914C39.2383 9.67478 39.1167 9.6576 38.9776 9.62323C38.9603 9.62323 38.9603 9.62323 38.9429 9.60605C38.8734 9.57169 38.8038 9.52014 38.7343 9.50296C38.6127 9.46859 38.4215 9.24523 38.4389 9.10777C38.4563 9.03904 38.491 8.98749 38.491 8.91877C38.5258 8.74694 38.6822 8.64385 38.8038 8.55794C38.9429 8.45485 39.134 8.4033 39.2904 8.35176C39.4642 8.30021 39.6554 8.28303 39.8292 8.28303C40.0899 8.28303 40.3679 8.31739 40.6286 8.33457C40.8198 8.35176 40.9936 8.38612 41.1847 8.4033C41.2716 8.42048 41.3585 8.45485 41.4454 8.47203C41.4628 8.47203 41.4802 8.47203 41.4802 8.48921C41.5844 8.52358 41.6887 8.57513 41.793 8.60949C41.8799 8.64385 41.9841 8.66104 42.0884 8.6954C42.1405 8.71258 42.1927 8.74695 42.2622 8.78131C42.3317 8.81568 42.4012 8.85004 42.4534 8.8844C42.5576 8.93595 42.6793 8.9875 42.7836 9.03904C42.8705 9.09059 42.94 9.15932 43.0269 9.21086C43.1833 9.31396 43.3397 9.41705 43.4787 9.53732C43.6004 9.64042 43.6177 9.6576 43.6873 9.50296C43.7394 9.39986 43.7741 9.31395 43.8263 9.22804C43.8784 9.12495 43.9479 9.02186 44.0174 8.91877C44.087 8.81567 44.1391 8.71258 44.1912 8.59231C44.2434 8.48921 44.2955 8.38612 44.3476 8.28303C44.3998 8.16275 44.4519 8.05966 44.5214 7.93938C44.6257 7.76756 44.73 7.59574 44.8342 7.42392C44.9038 7.32083 44.9559 7.20055 45.0254 7.09746C45.0775 7.01155 45.0949 6.90846 45.1297 6.82254C44.9733 6.71945 44.8342 6.65072 44.7126 6.56481C44.6083 6.49608 44.5041 6.44454 44.3998 6.37581C44.3476 6.34145 44.2955 6.32427 44.2434 6.2899C44.1391 6.23836 44.0348 6.16963 43.9306 6.11808C43.8089 6.06654 43.6873 6.01498 43.5656 5.96344C43.5135 5.94626 43.4613 5.91189 43.4092 5.89471C43.3049 5.86035 43.218 5.8088 43.1138 5.77444C43.0269 5.74008 42.94 5.72289 42.8705 5.70571C42.7836 5.67134 42.6793 5.6198 42.5924 5.58544C42.4534 5.55107 42.3143 5.53389 42.1753 5.49952C42.1579 5.49952 42.1579 5.49952 42.1406 5.49952C42.0189 5.46516 41.8972 5.41361 41.7582 5.37925C41.6366 5.36207 41.5323 5.34488 41.4106 5.31052C41.2195 5.25897 41.0109 5.24179 40.8024 5.24179C40.6112 5.22461 40.4027 5.22461 40.2115 5.22461C39.7249 5.24179 39.2209 5.19024 38.7343 5.29334C38.5605 5.3277 38.3694 5.34488 38.1782 5.37925H38.1608C38.0392 5.41361 37.9175 5.46516 37.7959 5.49952C37.6916 5.53389 37.5873 5.53389 37.4831 5.58544C37.344 5.63698 37.205 5.70571 37.0834 5.77444C36.9617 5.82599 36.8401 5.87753 36.7184 5.92908C36.6663 5.94626 36.6141 5.98062 36.562 6.01499C36.4751 6.06653 36.4056 6.13526 36.3187 6.18681C36.197 6.27272 36.0754 6.34145 35.9537 6.44454C35.8321 6.53045 35.7278 6.63354 35.6235 6.73663C35.554 6.80536 35.4671 6.89128 35.3976 6.97719C35.3107 7.09746 35.2238 7.21773 35.1543 7.33801C35.0674 7.47547 34.9805 7.6301 34.911 7.76756C34.8763 7.83629 34.8415 7.9222 34.8241 7.99093C34.7894 8.09403 34.7372 8.19712 34.7025 8.31739C34.6851 8.35176 34.7025 8.36894 34.6851 8.4033C34.6503 8.57512 34.5808 8.74694 34.5635 8.91877C34.5461 9.10777 34.5461 9.31395 34.5635 9.50296C34.5808 9.72632 34.6156 9.96687 34.633 10.1902C34.633 10.2074 34.633 10.2074 34.6503 10.2246C34.6851 10.3449 34.7372 10.4823 34.772 10.6026C34.7894 10.6885 34.8241 10.7744 34.8589 10.8432C34.911 10.9463 34.9805 11.0493 35.0501 11.1524C35.1196 11.2727 35.1891 11.4102 35.276 11.5133C35.415 11.6679 35.5714 11.8225 35.7278 11.96C35.8495 12.0631 35.9711 12.1662 36.0928 12.2521C36.1797 12.3208 36.3013 12.3552 36.4056 12.4067C36.5272 12.4755 36.6489 12.5442 36.7705 12.5957C36.8401 12.6301 36.9269 12.6473 37.0138 12.6817C37.1007 12.716 37.1703 12.7676 37.2398 12.7847C37.344 12.8191 37.4483 12.8363 37.5526 12.8707C37.709 12.905 37.8654 12.9566 38.0392 13.0081C38.0566 13.0081 38.0739 13.0081 38.0913 13.0081C38.2303 13.0425 38.352 13.1112 38.491 13.1284C38.717 13.1628 38.9429 13.1971 39.1514 13.2658C39.2904 13.3002 39.4295 13.283 39.5859 13.3346C39.7075 13.3861 39.8466 13.3689 39.9856 13.4033C40.2289 13.4548 40.4896 13.472 40.7329 13.5408C40.8719 13.5751 41.0109 13.5923 41.15 13.6267C41.1673 13.6267 41.1673 13.6267 41.1847 13.6267C41.3064 13.6954 41.4106 13.7469 41.5323 13.8157C41.6887 13.8844 41.7756 14.0047 41.8104 14.1593C41.8451 14.3311 41.7756 14.503 41.6539 14.6576C41.5323 14.7951 41.4106 14.881 41.2369 14.9325C41.0805 14.9841 40.9414 15.0356 40.785 15.0528C40.5938 15.0872 40.4027 15.0356 40.2115 15.1043C40.1768 15.1215 40.1072 15.1043 40.0725 15.1043C40.0204 15.0871 39.9508 15.07 39.8987 15.07C39.6206 15.0356 39.3426 15.0184 39.0645 14.9841C39.0471 14.9841 39.0471 14.9841 39.0298 14.9669C38.8907 14.9325 38.7517 14.881 38.6127 14.8466C38.5084 14.8122 38.4041 14.7951 38.2999 14.7607C38.2304 14.7435 38.1608 14.7091 38.0913 14.692C38.0044 14.6576 37.9175 14.606 37.8306 14.5717C37.7437 14.5373 37.6569 14.5201 37.57 14.4858C37.4136 14.3999 37.2571 14.314 37.0834 14.228C36.9617 14.1593 36.8227 14.0906 36.701 14.0219C36.5272 13.9359 36.3535 13.85 36.197 13.7298C36.058 13.6267 35.919 13.5064 35.7973 13.4033C35.2412 14.3311 34.7025 15.2762 34.1464 16.2212C34.1811 16.2555 34.2159 16.2727 34.2506 16.3071C34.407 16.4445 34.5635 16.5648 34.7372 16.6679C34.8936 16.7538 35.0327 16.8913 35.1891 16.9772C35.3455 17.0631 35.5019 17.1318 35.6757 17.2006C35.7278 17.2177 35.78 17.2521 35.8321 17.2693C35.919 17.3036 36.0233 17.3552 36.1102 17.3896C36.1275 17.4067 36.1449 17.4067 36.1797 17.4067C36.2666 17.4411 36.3361 17.4926 36.423 17.5098C36.5099 17.5442 36.6141 17.5614 36.7184 17.5957C36.8922 17.6473 37.0486 17.7332 37.2224 17.7847C37.3614 17.8191 37.5004 17.8363 37.6395 17.8707C37.6569 17.8707 37.6569 17.8707 37.6742 17.8707C37.8306 17.905 37.9697 17.9566 38.1261 17.9909C38.2477 18.0253 38.3868 18.0081 38.5084 18.0425C38.717 18.094 38.9429 18.1284 39.1514 18.1112C39.7944 18.094 40.4548 18.1799 41.0978 18.0597C41.2195 18.0425 41.3411 18.0597 41.4628 18.0425C41.6539 18.0081 41.8277 17.9566 42.0189 17.9222C42.1579 17.8878 42.2796 17.8707 42.4186 17.8363C42.5055 17.8191 42.575 17.7847 42.6619 17.7676C42.7488 17.7332 42.8531 17.6816 42.94 17.6473C43.0269 17.6129 43.1138 17.5957 43.1833 17.5614C43.3397 17.4755 43.4961 17.3896 43.6525 17.3036C43.8263 17.2005 44.0001 17.0975 44.1739 16.9772C44.3129 16.8741 44.4519 16.7538 44.5909 16.6164C44.7126 16.4961 44.8342 16.3758 44.9385 16.2384C45.0428 16.1009 45.1297 15.9291 45.2166 15.7744C45.3035 15.6026 45.4077 15.4308 45.4773 15.2418C45.5468 15.0871 45.5815 14.8981 45.6163 14.7435C45.651 14.5545 45.6684 14.3483 45.6858 14.1421C45.6858 14.0219 45.6337 13.9016 45.6337 13.7813C45.651 13.5236 45.6337 13.2315 45.512 12.9566Z" fill="#869AAF"/>
<path fill-rule="evenodd" clip-rule="evenodd" d="M58.7376 8.28336C58.7202 8.12872 58.6855 7.97409 58.6681 7.83663V7.81945C58.6334 7.69917 58.5812 7.59608 58.5465 7.47581C58.5117 7.38989 58.4943 7.30399 58.4596 7.23526C58.4074 7.11498 58.3379 7.01189 58.2684 6.90879C58.1815 6.78852 58.112 6.65106 58.0077 6.54797C57.9208 6.4277 57.8166 6.3246 57.7123 6.23869C57.6254 6.15278 57.5385 6.08405 57.4516 6.01533C57.3647 5.9466 57.2604 5.89505 57.1735 5.8435C57.0345 5.75759 56.8781 5.68886 56.7391 5.62013C56.6522 5.58577 56.5479 5.56859 56.461 5.53422C56.322 5.46549 56.183 5.41395 56.0092 5.41395C55.9918 5.41395 55.9744 5.41395 55.957 5.41395C55.7833 5.37959 55.6095 5.29367 55.4357 5.29367C54.8796 5.29367 54.3061 5.20777 53.7499 5.34522C53.6283 5.37959 53.4893 5.3624 53.3502 5.39677C53.1765 5.44831 52.9853 5.46549 52.8115 5.53422C52.6898 5.58577 52.5508 5.62014 52.4118 5.67168C52.2728 5.72323 52.1511 5.77477 52.0121 5.82632C51.9599 5.8435 51.8904 5.87787 51.8383 5.91223C51.7514 5.96378 51.6645 6.03251 51.5776 6.08405C51.4386 6.16996 51.2822 6.25587 51.1605 6.34178C51.0736 6.41051 50.9867 6.47924 50.9172 6.54797C50.7956 6.65106 50.6739 6.75416 50.5349 6.85725C50.5001 6.89161 50.4654 6.92597 50.3959 6.9947V0.843506H50.2047H46.5552C46.364 0.843506 46.364 0.843507 46.364 1.03251V16.0325C46.364 16.5823 46.364 17.1322 46.364 17.682C46.364 17.8023 46.4161 17.8538 46.5378 17.8538C47.7543 17.8538 48.9708 17.8538 50.1873 17.8538C50.3263 17.8538 50.3785 17.8023 50.3785 17.6648C50.3785 15.1218 50.3785 12.5617 50.3785 10.0188C50.3785 9.96721 50.3785 9.93285 50.3785 9.8813C50.3785 9.86412 50.3959 9.82976 50.4132 9.81258C50.5349 9.67512 50.6565 9.53766 50.7782 9.43457C50.9172 9.31429 51.0563 9.22838 51.2127 9.14247C51.2996 9.09092 51.3864 9.03938 51.4733 8.98783C51.5429 8.95347 51.6297 8.90192 51.7166 8.88474C51.8209 8.85037 51.9252 8.81601 52.0468 8.79883C52.238 8.76446 52.4465 8.69574 52.6377 8.69574C52.8289 8.67856 53.0374 8.7301 53.2286 8.74728C53.4198 8.74728 53.5935 8.81601 53.7673 8.86756C53.9237 8.9191 54.0628 8.98783 54.1844 9.09092C54.2887 9.17683 54.4103 9.27993 54.4799 9.38302C54.532 9.48611 54.6189 9.58921 54.6536 9.72666C54.6884 9.8813 54.7753 10.0359 54.7753 10.2078C54.7753 10.3796 54.7753 10.5514 54.7753 10.7232C54.7753 13.0428 54.7753 15.3452 54.7753 17.6648C54.7753 17.8194 54.8274 17.871 54.9838 17.871H58.5812C58.5986 17.871 58.6334 17.871 58.6507 17.871C58.7376 17.8538 58.7898 17.8194 58.7898 17.7164C58.7898 16.1356 58.8071 14.572 58.7898 13.0084C58.7724 11.4105 58.8767 9.84694 58.7376 8.28336Z" fill="#869AAF"/>
<path fill-rule="evenodd" clip-rule="evenodd" d="M86.3525 10.328C86.3178 10.1562 86.3004 9.98437 86.2656 9.81255V9.79536C86.2309 9.65791 86.1787 9.53763 86.144 9.40017C86.1092 9.29708 86.0919 9.1768 86.0571 9.05653C86.0397 8.9878 86.0223 8.93625 85.9876 8.88471C85.9528 8.7988 85.9354 8.73007 85.9007 8.64416C85.8659 8.57543 85.8312 8.5067 85.7964 8.42079C85.7269 8.28334 85.6748 8.16306 85.6226 8.0256C85.5705 7.93969 85.5184 7.85379 85.4662 7.75069C85.4141 7.66478 85.3619 7.56169 85.2924 7.45859C85.2055 7.33832 85.0665 7.21804 84.997 7.08059C84.8927 6.89158 84.7363 6.77131 84.5973 6.63385C84.4583 6.4964 84.3192 6.37612 84.1628 6.23866C84.0933 6.18712 84.0238 6.13557 83.9543 6.10121C83.8674 6.04966 83.7805 5.98093 83.6762 5.92939C83.5719 5.87784 83.485 5.80911 83.3808 5.75757C83.2591 5.70602 83.1375 5.65447 83.0158 5.60293C82.8768 5.5342 82.7378 5.46547 82.5814 5.41392C82.4076 5.36238 82.2512 5.31083 82.0774 5.27646C81.921 5.2421 81.7472 5.20774 81.5908 5.20774C81.2953 5.19055 80.9825 5.19055 80.6871 5.20774C80.4264 5.22492 80.1657 5.25928 79.905 5.27646C79.8877 5.27646 79.8703 5.27646 79.8529 5.29365C79.7313 5.32801 79.6096 5.37956 79.488 5.41392C79.3837 5.44829 79.2794 5.46547 79.1925 5.49983C79.1404 5.51702 79.0882 5.55138 79.0187 5.58574C78.9492 5.62011 78.8797 5.65447 78.8276 5.68884C78.7233 5.74038 78.6016 5.77475 78.4974 5.84348C78.3236 5.96375 78.1324 6.10121 77.976 6.23866C77.8196 6.37612 77.6632 6.53076 77.5242 6.66822C77.4373 6.75413 77.3678 6.82285 77.2982 6.90876C77.2809 6.90876 77.2809 6.89159 77.2635 6.89159V0.826294H73.3011V0.929388C73.3011 6.51358 73.3011 12.0978 73.3011 17.682C73.3011 17.8194 73.3011 17.8366 73.4576 17.8366C74.6741 17.8366 75.9079 17.8366 77.1245 17.8366C77.2635 17.8366 77.2809 17.8194 77.2809 17.682C77.2809 17.3211 77.2809 16.9431 77.2809 16.5823C77.2809 16.5308 77.2809 16.4964 77.2982 16.4277C77.3504 16.4792 77.3851 16.5136 77.4199 16.5479C77.5415 16.6682 77.6632 16.8057 77.8022 16.9259C77.9239 17.0462 78.0455 17.1493 78.1846 17.2524C78.2714 17.3211 78.3757 17.3899 78.48 17.4586C78.5843 17.5273 78.7059 17.596 78.8276 17.6476C78.9318 17.6991 79.0361 17.7507 79.1578 17.8022C79.2447 17.8366 79.3489 17.8538 79.4532 17.8881C79.5922 17.9569 79.7313 18.0084 79.8877 18.0084C79.905 18.0084 79.9224 18.0084 79.9398 18.0256C80.0962 18.1287 80.2874 18.1115 80.4612 18.1287C80.9651 18.1459 81.4517 18.1802 81.9557 18.0771C82.0948 18.0428 82.2512 18.0256 82.4076 18.0084H82.4249C82.5466 17.9741 82.6509 17.9225 82.7725 17.8881C82.8594 17.8538 82.9463 17.8366 83.0332 17.8022C83.1201 17.7679 83.2244 17.7163 83.3113 17.682C83.4329 17.6304 83.5372 17.5617 83.6588 17.493C83.7631 17.4242 83.8674 17.3555 83.9717 17.2868C84.0933 17.2009 84.2323 17.1493 84.3366 17.0462C84.5973 16.7713 84.9275 16.5479 85.1186 16.2043C85.2229 16.0325 85.3793 15.8778 85.501 15.706C85.6052 15.5514 85.6921 15.3796 85.779 15.2249C85.8485 15.0703 85.9181 14.9156 85.9876 14.7438C86.0397 14.6064 86.0918 14.4861 86.1266 14.3486C86.1787 14.194 86.2309 14.0565 86.2656 13.9019C86.3178 13.6785 86.3699 13.4552 86.4047 13.249C86.4394 13.0256 86.4568 12.8022 86.4742 12.5789C86.4742 12.5101 86.4742 12.4242 86.4742 12.3555C86.4916 12.1493 86.4394 11.9431 86.5263 11.7541C86.5611 11.6854 86.4916 11.5823 86.4916 11.4964C86.4047 11.084 86.422 10.706 86.3525 10.328ZM82.3728 12.0806C82.3728 12.218 82.3381 12.3555 82.3033 12.5101C82.2685 12.6648 82.2338 12.8194 82.1643 12.9741C82.0948 13.1287 82.0079 13.2833 81.9036 13.438C81.8167 13.5754 81.7298 13.7301 81.6081 13.8675C81.5039 13.9878 81.3822 14.0737 81.2606 14.1768C81.1389 14.2799 80.9999 14.3658 80.8609 14.4345C80.7914 14.4689 80.6871 14.4861 80.6002 14.5204C80.4785 14.5548 80.3743 14.6064 80.2526 14.6407C80.2352 14.6407 80.2005 14.6579 80.1831 14.6579C80.0093 14.6579 79.8181 14.6579 79.6444 14.6579C79.4706 14.6579 79.2968 14.6751 79.123 14.6579C78.984 14.6407 78.8623 14.5892 78.7407 14.5376C78.6538 14.5033 78.5669 14.4861 78.4974 14.4689C78.3236 14.4002 78.1498 14.3486 77.9934 14.2283C77.8891 14.1424 77.7501 14.0737 77.6458 13.9878C77.5068 13.8847 77.4025 13.7472 77.2809 13.627C77.2635 13.6098 77.2635 13.5582 77.2635 13.5239C77.2635 12.3383 77.2635 11.1528 77.2635 9.95C77.2635 9.84691 77.333 9.74382 77.4025 9.67509C77.5415 9.53763 77.7153 9.40018 77.8717 9.2799C78.0108 9.19399 78.1672 9.12526 78.3236 9.05653C78.4626 8.9878 78.6016 8.91908 78.758 8.86753C78.8449 8.83317 78.9318 8.81598 79.0013 8.7988C79.2447 8.76443 79.5053 8.73007 79.7486 8.73007C79.9224 8.73007 80.0962 8.76443 80.27 8.7988C80.409 8.83316 80.5654 8.86753 80.6871 8.93626C80.8956 9.03935 81.1215 9.12526 81.278 9.29708C81.417 9.43454 81.5734 9.55481 81.695 9.69227C81.7646 9.77818 81.8167 9.88127 81.8862 9.96719C81.9383 10.0703 82.0079 10.1562 82.0426 10.2593C82.0774 10.3452 82.1121 10.4311 82.1469 10.517C82.1816 10.6201 82.2164 10.7232 82.2685 10.8263C82.2685 10.8435 82.2859 10.8607 82.2859 10.8607C82.3902 11.2558 82.3902 11.6682 82.3728 12.0806Z" fill="#869AAF"/>
<path fill-rule="evenodd" clip-rule="evenodd" d="M104.983 11.0495C104.965 10.9292 104.983 10.809 104.965 10.6715C104.93 10.4997 104.878 10.345 104.844 10.1732C104.809 10.0358 104.791 9.89831 104.757 9.76086V9.74367C104.687 9.57185 104.635 9.41722 104.565 9.24539C104.513 9.10794 104.461 8.97048 104.426 8.83302C104.409 8.7643 104.374 8.69557 104.34 8.64402C104.253 8.48938 104.183 8.33475 104.096 8.18011C104.061 8.12856 104.027 8.07701 103.975 8.00829C103.905 7.90519 103.836 7.8021 103.749 7.699C103.662 7.57873 103.592 7.45845 103.488 7.33818C103.401 7.2179 103.297 7.11481 103.193 7.0289C103.036 6.87426 102.897 6.73681 102.723 6.59935C102.515 6.42753 102.306 6.27289 102.08 6.13543C101.872 6.01515 101.663 5.89488 101.455 5.79179C101.316 5.72306 101.177 5.6887 101.038 5.63715C100.968 5.60279 100.881 5.5856 100.812 5.56842C100.725 5.53406 100.62 5.48251 100.534 5.44814C100.36 5.3966 100.169 5.34505 99.9775 5.31069C99.7863 5.27633 99.5952 5.24196 99.4214 5.24196C98.8131 5.24196 98.2049 5.17323 97.5966 5.29351C97.4228 5.32787 97.2317 5.34505 97.0405 5.37942C97.0405 5.37942 97.0405 5.37942 97.0231 5.37942C96.8667 5.41378 96.7103 5.46533 96.5539 5.51688C96.5365 5.51688 96.5365 5.51688 96.5191 5.51688C96.4149 5.55124 96.2932 5.60279 96.1889 5.63715C96.1194 5.67151 96.0325 5.6887 95.963 5.72306C95.8414 5.77461 95.7371 5.84333 95.6328 5.89488C95.459 5.98079 95.2679 6.0667 95.1115 6.1698C94.9203 6.29007 94.7291 6.39316 94.5553 6.53062C94.3816 6.66808 94.2251 6.80554 94.0687 6.96017C93.9645 7.06327 93.8602 7.16636 93.7733 7.28663C93.6516 7.42409 93.4952 7.54437 93.4083 7.73337C93.3562 7.85364 93.2346 7.93955 93.165 8.05983C93.0955 8.14574 93.0608 8.24883 93.0086 8.33474C92.9217 8.48938 92.8349 8.62684 92.7653 8.78148C92.7306 8.85021 92.7132 8.91894 92.6784 9.00485C92.6437 9.09076 92.6089 9.19385 92.5568 9.27976C92.5394 9.29694 92.5394 9.33131 92.522 9.34849C92.4873 9.4344 92.4525 9.52031 92.4178 9.60622C92.383 9.72649 92.3656 9.84677 92.3309 9.94986C92.2961 10.0701 92.244 10.1904 92.2092 10.3279C92.1745 10.4653 92.1745 10.6028 92.1397 10.7231C92.0876 10.9808 92.0702 11.2385 92.0702 11.4963C92.0702 11.754 92.1049 12.0117 92.1223 12.2523C92.1397 12.5272 92.1745 12.8021 92.2092 13.077C92.2092 13.0942 92.2092 13.0942 92.2092 13.1114C92.244 13.266 92.2961 13.4035 92.3309 13.5581C92.3656 13.6612 92.383 13.7643 92.4004 13.8674C92.4178 13.9361 92.4351 14.0048 92.4699 14.0736C92.5047 14.1767 92.5568 14.2626 92.5916 14.3657C92.6263 14.4344 92.6437 14.5203 92.6784 14.589C92.7306 14.6921 92.8001 14.8124 92.8522 14.9155C92.9391 15.0701 93.0086 15.2076 93.1129 15.3622C93.2172 15.5169 93.3562 15.6543 93.4605 15.809C93.5995 16.0323 93.8081 16.2042 93.9992 16.3932C94.1209 16.4963 94.2425 16.6165 94.3642 16.7196C94.4163 16.7712 94.4684 16.8227 94.5206 16.8571C94.677 16.9602 94.8508 17.0461 95.0072 17.1492C95.1636 17.2523 95.32 17.3382 95.4938 17.4069C95.5459 17.4241 95.5981 17.4584 95.6502 17.4756C95.7197 17.51 95.7892 17.5615 95.8761 17.5959C95.963 17.6303 96.0499 17.6475 96.1368 17.6818C96.2585 17.7162 96.3801 17.7677 96.5018 17.8193C96.606 17.8536 96.6929 17.8708 96.7972 17.9052C96.9188 17.9395 97.0405 17.9911 97.1795 18.0255C97.2838 18.0426 97.4054 18.0598 97.5097 18.077C97.7009 18.1285 97.9094 18.1457 98.1006 18.1457C98.7088 18.1286 99.3171 18.2145 99.9254 18.0942C100.186 18.0426 100.429 18.0426 100.69 18.0083C100.707 18.0083 100.725 18.0083 100.742 17.9911C100.899 17.9567 101.055 17.9052 101.211 17.8708C101.333 17.8365 101.455 17.8193 101.576 17.7849C101.663 17.7677 101.75 17.7334 101.82 17.7162C101.941 17.6818 102.046 17.6303 102.167 17.5959C102.237 17.5615 102.324 17.5444 102.393 17.51C102.48 17.4756 102.55 17.4241 102.636 17.3897C102.706 17.3554 102.793 17.3382 102.862 17.3038C102.984 17.2523 103.088 17.1835 103.193 17.132C103.245 17.0976 103.297 17.0804 103.349 17.0461C103.453 16.9773 103.54 16.8571 103.662 16.8055C103.818 16.7368 103.922 16.5993 104.044 16.4791C104.009 16.4619 103.992 16.4619 103.975 16.4447C103.888 16.3072 103.783 16.1526 103.697 16.0151C103.627 15.8949 103.557 15.7746 103.471 15.6543C103.366 15.4997 103.245 15.3622 103.14 15.2076C103.071 15.0873 103.001 14.967 102.932 14.8639C102.828 14.6921 102.706 14.5375 102.584 14.3828C102.515 14.2798 102.445 14.1767 102.376 14.0736C102.289 13.9361 102.289 13.9361 102.167 14.0392C102.115 14.0908 102.046 14.1251 101.993 14.1767C101.907 14.2282 101.802 14.2798 101.715 14.3313C101.594 14.4 101.489 14.4516 101.368 14.5203C101.298 14.5547 101.211 14.5719 101.142 14.6062C101.003 14.6578 100.846 14.7437 100.707 14.778C100.568 14.8124 100.429 14.8296 100.29 14.8639C100.273 14.8639 100.273 14.8639 100.256 14.8639C100.064 14.9499 99.8558 14.967 99.6473 14.9842C99.2823 15.0014 98.9174 15.053 98.5524 14.9327C98.4308 14.8983 98.3091 14.9155 98.2049 14.8639C98.0658 14.8124 97.9268 14.7952 97.7878 14.7265C97.6835 14.6749 97.5618 14.6406 97.4576 14.589C97.2664 14.5031 97.11 14.4 96.9536 14.2454C96.8841 14.1767 96.8146 14.1251 96.7624 14.0564C96.7451 14.0392 96.7277 14.0048 96.7103 13.9877C96.5886 13.8502 96.467 13.7127 96.3975 13.5409C96.3801 13.4894 96.328 13.4206 96.3106 13.3691C96.2585 13.266 96.2237 13.1457 96.1716 13.0255C96.2584 13.0255 96.3106 13.0255 96.3627 13.0255C99.1954 13.0255 102.011 13.0255 104.844 13.0255C105 13.0255 105.017 13.0255 105.017 12.8708C105.017 12.2351 105.104 11.6509 104.983 11.0495ZM96.1368 10.2935C96.1542 10.2248 96.1889 10.156 96.2063 10.0873C96.2237 10.0014 96.2585 9.93268 96.2758 9.84677C96.328 9.6234 96.4496 9.45158 96.606 9.27976C96.6929 9.19385 96.7451 9.07357 96.8493 9.00485C96.9536 8.90175 97.0926 8.83303 97.2143 8.7643C97.3185 8.69557 97.4402 8.62684 97.5618 8.57529C97.6314 8.54093 97.7183 8.50657 97.8052 8.50657C98.0311 8.4722 98.257 8.43784 98.5003 8.42065C98.7088 8.40347 98.9348 8.40347 99.1433 8.42065C99.2997 8.43784 99.4735 8.45502 99.6299 8.48938C99.7689 8.52375 99.908 8.57529 100.047 8.62684C100.134 8.6612 100.221 8.71275 100.29 8.7643C100.447 8.86739 100.603 8.97048 100.742 9.10794C100.846 9.21103 100.916 9.34849 100.985 9.46877C101.055 9.57186 101.124 9.67495 101.177 9.79522C101.229 9.94986 101.246 10.1217 101.281 10.3107H96.1368V10.2935Z" fill="#869AAF"/>
<path fill-rule="evenodd" clip-rule="evenodd" d="M87.3434 0.998539V17.6996C87.3434 17.8714 87.3434 17.8714 87.5172 17.8714C88.7163 17.8714 89.9328 17.8714 91.1319 17.8714C91.3057 17.8714 91.3057 17.8714 91.3057 17.6996V0.981356V0.861084H87.3434V0.998539Z" fill="#869AAF"/>
</svg>
