<svg width="119" height="19" viewBox="0 0 119 19" fill="none" xmlns="http://www.w3.org/2000/svg">
<path d="M79.8217 1.2282H75.2113L73.3427 2.60559L73.6638 1.19934H69.0996L68.3625 1.84324C68.1772 1.73743 67.7968 1.51949 67.601 1.39143C67.3105 1.23271 66.6643 1.2282 66.5912 1.2282H59.5033L58.5332 1.9698C58.2864 1.74915 57.6621 1.25315 56.8838 1.09082C55.477 0.764058 55.1109 0.822677 54.6555 0.844922C54.5173 0.851836 54.3754 0.85875 54.2112 0.85875C53.2111 0.85875 52.1306 1.19423 51.6382 1.36768L51.6575 1.19874L47.0342 1.2288L45.0882 2.7589L45.0362 1.2288H40.5301L39.5117 1.9689L39.7967 1.2285H35.7582L34.1221 2.38434L34.0713 1.2285H30.0294L28.7532 2.16339L28.6523 1.19994H17.7503L17.6402 1.25706L17.6702 1.19784L13.5415 1.2288L12.2448 2.15467L12.0659 1.19994H7.72367L4.16074 4.00161L0.268433 18.0602H4.11028L6.12081 16.6037L6.33244 18.0602H10.0758L10.618 17.6108L10.7765 17.6252L11.0425 18.0602H18.4574L20.0991 16.8797L19.9034 18.0602H23.6336L25.9077 16.4955L25.5285 18.0602H29.3346L33.1458 15.2435L37.7058 6.06199L38.4144 12.0188L36.6834 18.0602H40.8763L43.6166 15.9926C43.8817 16.5054 44.7001 17.8383 46.1372 18.0572C46.607 18.1438 47.374 18.1723 47.4064 18.1735H47.4125C47.9945 18.1735 48.3524 18.1684 48.9493 18.0569C49.6512 17.9258 50.035 17.7653 50.6718 17.4977L50.7207 17.4776C51.3614 17.2086 52.1719 16.7213 52.627 16.4357L52.2911 18.0599H56.2599L57.7778 17.0342L57.5169 18.0599H65.8651L67.6848 16.7709L68.113 18.0599H72.7255L76.3567 15.1981L74.7027 7.58277L79.8208 1.2279L79.8217 1.2282Z" fill="#869AAF"/>
<path d="M110.041 1.19985L109.251 1.73493C109.053 1.61619 108.6 1.35136 108.251 1.21248C107.321 0.842727 106.705 0.816574 105.725 0.830703C104.535 0.848739 103.714 0.971087 102.522 1.58914C101.995 1.86269 101.355 2.38575 101.059 2.63826C100.861 2.30759 100.414 1.64475 99.899 1.41479C98.7133 0.876696 97.9564 0.877598 96.7257 0.915775C95.5935 0.951247 94.9366 1.08712 93.9172 1.49685C93.2083 1.78243 92.3168 2.39567 91.956 2.65329C91.8159 2.411 91.5522 1.97482 91.3449 1.75147C91.0525 1.36819 90.2831 1.21879 90.1962 1.20316L83.0174 1.20015L79.6854 3.80222L75.6466 18.0601H79.7527L83.4288 15.2915L83.9261 13.7975C84.1524 13.8014 84.6448 13.8035 85.0056 13.7659C85.2687 13.7379 85.6103 13.6703 85.8406 13.6207C85.7549 14.1627 85.6149 15.4256 86.0186 16.2041C86.774 17.6603 88.1172 17.9567 89.4552 18.0598C89.7634 18.0859 90.0372 18.0989 90.2916 18.0989C91.2036 18.0989 91.885 17.932 92.8224 17.6251C93.7717 17.314 94.9876 16.5399 95.3923 16.2724C95.6177 16.5489 96.1761 17.1952 96.7012 17.4968C97.4484 17.9266 97.9949 17.9789 98.8249 18.0589C99.1222 18.0881 99.387 18.1019 99.6363 18.1019C100.501 18.1019 101.205 17.9405 102.236 17.5067C103.226 17.0957 104.698 16.169 105.387 15.7211L104.809 17.9468H108.707L112.328 15.2332L114.817 6.67033L117.797 4.16746L118.623 1.20045H110.041L110.041 1.19985Z" fill="#869AAF"/>
<path d="M17.0019 1.68276H14.1632L12.3236 7.65585L11.6545 1.68276H8.03039L4.48887 14.633L4.4696 14.7051H7.24961L9.321 7.71598L10.1048 14.7051H13.209L16.9808 1.75491L17.0019 1.68276ZM36.2121 1.68276L33.0963 7.86327L33.7024 1.74589L33.7086 1.68366H30.5998L27.6608 7.73491L28.2642 1.74589L28.2703 1.68276H18.0387L14.44 14.633L14.4201 14.7051H21.4212L22.2714 12.3165H18.3904L19.2834 9.24607H22.8112L23.5406 6.85744H19.9547L20.8438 4.12791H24.6156L23.8678 14.6441L23.8636 14.7048H27.0286L30.3707 7.69584L29.6465 14.7051H32.6975L39.0771 1.76483L39.1169 1.68306L36.2121 1.68276ZM57.1009 8.34725L57.1303 8.35176L58.0771 5.09497H58.0612C58.0735 5.03575 58.101 4.93174 58.1273 4.83043C58.2579 4.32962 58.5013 3.39803 58.375 2.92247C58.0882 1.6058 57.1523 1.3593 56.7673 1.31421C55.8865 1.15188 55.6501 1.15008 55.0185 1.14407L54.8191 1.14226C54.3775 1.13806 54.0943 1.13415 53.6239 1.20088C52.9193 1.30069 52.5242 1.39027 51.9003 1.68937C51.4865 1.88777 51.2635 2.02906 50.9051 2.32215C50.2491 2.85904 49.5888 3.99564 49.5558 4.05667L47.2406 12.4196C47.2315 12.4635 47.0174 13.5144 47.3645 14.0534C47.5541 14.348 47.7538 14.4682 48.03 14.6336L48.1352 14.6967C48.7236 15.0556 49.1582 15.1158 49.8164 15.2059L49.8934 15.2168C50.2078 15.2604 50.4736 15.2805 50.7299 15.2805C51.1146 15.2805 51.4761 15.2342 51.9358 15.1596C52.5694 15.0565 52.9578 14.9847 53.571 14.7003C54.0512 14.4779 54.3136 14.3095 54.7405 13.953C55.2299 13.5442 55.866 12.7103 55.9149 12.56H55.9161C56.2394 11.4255 57.0875 8.45878 57.1272 8.36048L57.1015 8.34846L57.1009 8.34725ZM68.2959 2.86295C68.2255 2.59541 68.1454 2.4451 67.9656 2.24279C67.7796 2.03237 67.6292 1.9497 67.3989 1.83156C67.2674 1.76392 67.0533 1.68937 67.0441 1.68637L59.8653 1.68336L56.266 14.633L56.2461 14.7051H59.4892L61.051 9.47334L62.3857 9.47243C62.4952 9.49257 62.7949 9.57765 62.8646 9.72494C62.912 9.82505 62.8781 10.0186 62.861 10.0845L61.6462 14.6333L61.6269 14.7045H65.0431L66.4428 9.83166C66.452 9.8037 66.6585 9.15048 66.4367 8.8162C66.3272 8.65207 66.2171 8.58413 66.0651 8.49004L66.0138 8.45818C65.8975 8.38603 65.7324 8.31749 65.6162 8.2736C65.7887 8.19695 66.0933 8.05626 66.3022 7.92941L66.3909 7.8762C66.6013 7.74994 66.753 7.65916 66.949 7.46647C67.0753 7.34262 67.2365 7.12799 67.2438 7.11897L68.2959 3.62529C68.2998 3.60605 68.3717 3.15033 68.2959 2.86295ZM89.6337 9.45049C89.7988 9.23585 89.8713 9.0609 89.956 8.85829C89.9897 8.77502 90.0264 8.68634 90.0735 8.58774C90.8463 6.94341 91.4029 4.11017 91.4069 4.08823C91.4136 4.06538 91.5843 3.52609 91.465 3.17618C91.4436 3.08901 91.4369 3.00784 91.432 2.92908C91.4228 2.80884 91.4136 2.68379 91.3463 2.5407C91.2362 2.30502 91.1148 2.1959 90.9264 2.03778C90.7842 1.91844 90.6708 1.86553 90.5386 1.8042C90.4707 1.77294 90.397 1.73807 90.3099 1.69057L90.2964 1.68336H83.4397L79.7544 14.6336L79.7339 14.7057H82.9192L84.1339 10.7837C84.3465 10.7927 85.2716 10.8324 86.0585 10.8324C86.5846 10.8324 86.9485 10.815 87.139 10.7807C87.6436 10.6935 87.97 10.5844 88.4397 10.343C88.9449 10.0845 89.2789 9.91313 89.634 9.45139L89.6337 9.45049ZM100.549 3.11967C100.532 3.05263 100.518 2.9859 100.504 2.92037C100.436 2.60052 100.373 2.29811 100.085 2.14359C99.7344 1.91423 99.4576 1.73296 99.008 1.57244C98.4208 1.36351 98.0318 1.34487 97.4428 1.31692L97.3709 1.31391C97.1614 1.30339 96.9926 1.29888 96.8388 1.29888C96.4198 1.29888 96.0619 1.33495 95.564 1.42814C95.0411 1.52614 94.7429 1.59949 94.2508 1.8009C93.6624 2.04259 93.3119 2.22416 92.7895 2.66365C92.4186 2.97478 91.9617 3.55705 91.9424 3.5817L89.356 12.3685C89.3514 12.4142 89.2514 13.5024 89.6257 14.054C89.852 14.3883 90.0683 14.5221 90.3955 14.7244C90.9356 15.0589 91.3537 15.1122 91.9314 15.1873C92.0026 15.1963 92.077 15.2053 92.1537 15.2162C92.5238 15.2661 92.8125 15.2883 93.0905 15.2883C93.4159 15.2883 93.7358 15.2589 94.1951 15.1873C94.8664 15.0827 95.2466 15.0039 95.8313 14.7274C96.3274 14.4935 96.602 14.3116 97.0018 13.9509C97.4746 13.5246 98.0128 12.7094 98.0584 12.5606H98.059C98.3976 11.4498 99.2848 8.54536 99.3282 8.44616L99.3007 8.43263L99.3322 8.43684L100.337 4.95278H100.321C100.331 4.91009 100.348 4.84516 100.366 4.78143C100.475 4.38553 100.676 3.64814 100.548 3.12027" fill="white"/>
<path d="M96.9868 4.04597C96.9143 3.90348 96.6094 3.82713 96.366 3.78835C96.288 3.77572 96.2112 3.76941 96.1372 3.76941C95.8253 3.76941 95.5788 3.87823 95.2888 4.02072C95.042 4.14216 94.8096 4.6526 94.7964 4.68116L92.7712 11.5086C92.7636 11.5416 92.5929 12.3232 93.0679 12.5409C93.285 12.6211 93.5248 12.6948 93.7994 12.6948C93.853 12.6948 93.9071 12.6918 93.9615 12.6864C94.2184 12.6575 94.4285 12.5505 94.5977 12.4645L94.6772 12.4242C94.9298 12.2905 95.024 12.0214 95.0803 11.8603C95.0903 11.8317 95.1017 11.7984 95.1108 11.7767H95.113C95.1735 11.7767 95.1943 11.7767 96.847 5.84872L97.103 4.83627C97.1097 4.82124 97.2877 4.45931 96.9868 4.04567" fill="#869AAF"/>
<path d="M44.7998 6.16657L44.5184 1.68359H41.2154L42.2644 9.35603L40.8016 14.7054H43.9866L45.5004 9.55503L50.9363 1.68359H47.6715L44.7998 6.16657ZM71.8337 5.7881L73.0032 1.68329H69.6439L65.7559 14.6326L65.7339 14.7054H69.2387L70.9462 9.17416L71.9731 14.6588L71.9814 14.7051H75.659L74.1464 7.49736L78.7583 1.77498L78.8317 1.68299H75.6205L71.8337 5.7881ZM110.37 1.68299L109.732 4.01481H111.784L108.739 14.6329L108.718 14.7051H111.876L114.942 4.12814H117.14L117.847 1.75574L117.868 1.68299H110.37ZM107.137 8.41843C106.913 8.08686 106.711 7.88996 106.478 7.6621C106.375 7.5629 106.267 7.45678 106.147 7.33083C105.967 7.13994 105.811 6.99204 105.662 6.84985C105.464 6.66047 105.277 6.48251 105.05 6.22368C104.967 6.12869 104.889 6.05144 104.814 5.97628C104.647 5.81095 104.504 5.66816 104.393 5.41054C104.258 5.0979 104.169 4.89199 104.225 4.56402C104.258 4.36412 104.284 4.24448 104.412 4.1101C104.51 4.0079 104.603 3.98385 104.744 3.94717L104.819 3.92733C105.007 3.87563 105.11 3.85038 105.288 3.87202C105.496 3.89757 105.618 3.9583 105.775 4.11161C105.902 4.23576 105.954 4.32564 105.992 4.48196C106.023 4.61573 106.007 4.71132 105.985 4.83187C105.977 4.88447 105.967 4.94009 105.961 5.00381L105.959 5.02185C105.938 5.23047 105.926 5.35643 105.876 5.56505C105.828 5.76345 105.706 6.06587 105.705 6.06887L105.673 6.14703H108.868L108.88 6.10555C108.882 6.09833 109.091 5.37416 109.199 4.90912C109.23 4.77625 109.262 4.66172 109.294 4.5538C109.366 4.30069 109.429 4.08185 109.432 3.75929V3.72022C109.437 3.23383 109.44 2.88272 109.162 2.44864C108.967 2.14352 108.786 1.99833 108.48 1.80594C108.172 1.61235 107.952 1.55643 107.62 1.47076L107.567 1.45723C107.204 1.36404 106.975 1.34721 106.629 1.32196L106.386 1.30392C106.141 1.28468 105.947 1.26965 105.742 1.26965C105.548 1.26965 105.357 1.28378 105.143 1.31384C104.952 1.3409 104.814 1.37697 104.668 1.41545C104.583 1.43829 104.494 1.46174 104.387 1.48549C104.257 1.51405 104.147 1.53148 104.04 1.54802C103.855 1.57748 103.679 1.60513 103.453 1.6872C103.093 1.81826 102.89 1.95715 102.609 2.15014L102.486 2.23371C102.172 2.44714 101.994 2.5764 101.726 2.83793L101.654 2.90707C101.447 3.10848 101.297 3.25277 101.138 3.53234C101 3.77523 100.951 3.94597 100.881 4.18165L100.844 4.31181C100.755 4.61152 100.71 4.76814 100.668 5.05913L100.652 5.17246C100.608 5.47006 100.577 5.6859 100.64 6.01566C100.686 6.25825 100.755 6.40044 100.85 6.59764L100.904 6.71127C101.096 7.118 101.298 7.36359 101.532 7.64767C101.628 7.7649 101.728 7.88605 101.836 8.02944C102.109 8.39017 102.264 8.59398 102.561 8.94209C102.7 9.10442 102.818 9.22767 102.931 9.34671C103.054 9.47537 103.171 9.59712 103.313 9.76636C103.364 9.82648 103.41 9.87848 103.454 9.92718C103.561 10.0462 103.646 10.1406 103.742 10.2993L103.766 10.3399C103.898 10.5564 103.978 10.6871 104.024 10.9351C104.074 11.2045 104.068 11.365 103.997 11.6205C103.937 11.8309 103.897 11.9572 103.75 12.1075C103.574 12.2885 103.421 12.363 103.147 12.4036C103.058 12.4165 102.986 12.4222 102.919 12.4222C102.757 12.4222 102.62 12.3847 102.46 12.296C102.279 12.1968 102.191 12.13 102.107 11.9773C102.025 11.8294 102.026 11.7176 102.027 11.5484V11.4925C102.027 11.3427 102.056 11.2435 102.092 11.1182C102.108 11.0629 102.125 11.004 102.141 10.9363C102.19 10.7283 102.284 10.4027 102.285 10.3991L102.306 10.327H99.0089L98.9936 10.3619C98.989 10.373 98.8768 10.6402 98.8193 10.8209C98.7501 11.0334 98.7214 11.1786 98.6847 11.3632C98.6725 11.4257 98.6593 11.4919 98.6437 11.5661C98.6162 11.6954 98.5856 11.8078 98.5575 11.9133C98.4911 12.1604 98.4336 12.3738 98.4403 12.6877C98.448 13.0574 98.481 13.2988 98.6474 13.6758C98.774 13.962 98.8774 14.1399 99.1233 14.3762C99.3312 14.5758 99.4994 14.6558 99.7334 14.7661L99.8319 14.813C100.315 15.0444 100.628 15.1076 101.18 15.1878C101.443 15.226 101.671 15.2437 101.898 15.2437C102.16 15.2437 102.408 15.2215 102.756 15.1878C103.439 15.1217 103.829 15.0667 104.447 14.8433C104.908 14.6771 105.169 14.5487 105.616 14.2692C106.02 14.0158 106.266 13.8552 106.61 13.4924C106.955 13.1293 107.127 12.8801 107.344 12.4258C107.582 11.9268 107.654 11.6223 107.725 11.1302C107.818 10.48 107.859 10.1127 107.694 9.51505C107.567 9.05572 107.407 8.81914 107.137 8.41873" fill="white"/>
<path d="M54.7741 4.03356C54.6037 3.84418 54.4157 3.81111 54.1869 3.78706C53.9768 3.76452 53.8542 3.79518 53.6468 3.84538C53.4572 3.89137 53.3526 3.92655 53.1954 4.02274C53.0617 4.10571 52.9009 4.28126 52.8942 4.28908L50.7411 11.5322C50.7362 11.5479 50.6231 11.9164 50.7136 12.1389C50.7925 12.3331 50.9154 12.4245 51.0885 12.5095C51.1974 12.563 51.2989 12.5856 51.428 12.5856C51.4794 12.5856 51.532 12.5826 51.5889 12.5787C51.6225 12.5763 51.6583 12.5739 51.7097 12.5718C51.9819 12.5597 52.1776 12.5507 52.4192 12.3923C52.5935 12.2781 52.6822 12.1837 52.785 12.0033C52.814 11.9516 52.8241 11.877 52.833 11.8109C52.836 11.7929 52.8391 11.7676 52.8428 11.7478H52.8501C52.9104 11.7478 52.9309 11.7478 54.5836 5.81888L54.8411 4.80462C54.8463 4.7926 54.9726 4.50762 54.9313 4.31523C54.9038 4.18597 54.8487 4.11683 54.7738 4.03326L54.7741 4.03356ZM64.6228 4.5461C64.6173 4.51303 64.6148 4.48087 64.6124 4.44991C64.6026 4.33958 64.5928 4.23497 64.4885 4.14268C64.3977 4.06242 64.3203 4.03687 64.1995 4.01523C64.1139 3.99959 63.9291 4.01342 63.9285 4.01402H62.6422L61.6749 7.06821L61.6522 7.14156H63.3912L63.4019 7.13735C63.4132 7.13254 63.6817 7.02372 63.823 6.89987C63.9906 6.75257 64.0499 6.60707 64.1188 6.43873C64.1386 6.39003 64.1597 6.33833 64.1848 6.28332C64.3059 6.01788 64.3509 5.83782 64.4136 5.58891L64.4487 5.44943C64.4732 5.35233 64.5029 5.26726 64.5313 5.18489C64.6017 4.98048 64.6628 4.80402 64.6225 4.5461" fill="#869AAF"/>
<path d="M87.9263 4.23499C87.8456 4.13518 87.7624 4.09821 87.6654 4.05552C87.641 4.0447 87.6159 4.03328 87.5884 4.02005C87.425 3.94129 87.2067 3.90161 86.9388 3.90161C86.4913 3.90161 86.0626 4.01193 86.0445 4.01674L86.0124 4.02486L84.7891 8.20693L84.7762 8.24992L84.816 8.27186C84.8233 8.27637 85.0105 8.38189 85.1469 8.41916C85.2454 8.44682 85.3329 8.45824 85.4374 8.45824C85.4833 8.45824 85.5286 8.45644 85.5787 8.45433C85.6124 8.45253 85.6473 8.45132 85.6858 8.45012L85.7427 8.44892C85.9659 8.44291 86.1127 8.4393 86.339 8.36174C86.6712 8.24872 86.8675 8.10202 87.0905 7.80141C87.2159 7.63157 87.2602 7.49058 87.3113 7.32735C87.3327 7.25911 87.3559 7.18606 87.3868 7.1058C87.6263 6.48264 87.8783 5.46027 87.8798 5.45305C87.8841 5.43892 87.9878 5.10134 87.9976 4.87047C88.0006 4.81336 88.0077 4.75925 88.0138 4.70754C88.0346 4.54461 88.0535 4.3907 87.9275 4.23559" fill="#869AAF"/>
</svg>
