<svg width="53" height="27" viewBox="0 0 53 27" fill="none" xmlns="http://www.w3.org/2000/svg">
<path d="M30.7345 16.3953L30.6429 16.1853H30.2614L30.1698 16.3953H30.002L30.4445 15.4353H30.475L30.9176 16.3953H30.7345ZM30.4445 15.7353L30.3072 16.0503H30.5819L30.4445 15.7353Z" fill="#869AAF"/>
<path d="M39.7532 16.4104C39.448 16.4104 39.2344 16.2004 39.2344 15.9304C39.2344 15.6454 39.448 15.4504 39.7532 15.4504C39.8753 15.4504 39.9821 15.4804 40.0584 15.5404L39.9974 15.6754C39.9211 15.6304 39.8295 15.6004 39.738 15.6004C39.5243 15.6004 39.4022 15.7354 39.4022 15.9304C39.4022 16.1254 39.5396 16.2604 39.738 16.2604C39.8295 16.2604 39.9211 16.2304 39.9974 16.1854L40.0432 16.3204C39.9974 16.3804 39.8753 16.4104 39.7532 16.4104Z" fill="#869AAF"/>
<path d="M40.7309 16.4104C40.4562 16.4104 40.2578 16.2004 40.2578 15.9304C40.2578 15.6454 40.4715 15.4504 40.7462 15.4504C41.0208 15.4504 41.2192 15.6604 41.2192 15.9304C41.2192 16.2004 41.0056 16.4104 40.7309 16.4104ZM40.7309 15.5854C40.5478 15.5854 40.4257 15.7354 40.4257 15.9304C40.4257 16.1254 40.5478 16.2754 40.7309 16.2754C40.914 16.2754 41.0361 16.1254 41.0361 15.9304C41.0514 15.7354 40.914 15.5854 40.7309 15.5854Z" fill="#869AAF"/>
<path d="M42.2404 16.3954L42.2252 15.8404L41.9352 16.2904H41.9047L41.5995 15.8404V16.3954H41.4316L41.4774 15.4504H41.4927L41.92 16.0654L42.332 15.4504H42.3625L42.4083 16.3954H42.2404Z" fill="#869AAF"/>
<path d="M42.9727 16.0954C42.9422 16.0954 42.9116 16.0954 42.8811 16.0954V16.3954H42.7285V15.4654C42.8201 15.4504 42.8964 15.4504 42.9727 15.4504C43.2321 15.4504 43.3695 15.5854 43.3695 15.7654C43.3542 15.9604 43.2169 16.0954 42.9727 16.0954ZM42.9879 15.6004C42.9574 15.6004 42.9116 15.6004 42.8811 15.6004V15.9454C42.9116 15.9454 42.9422 15.9454 42.9727 15.9454C43.1253 15.9454 43.1863 15.8704 43.1863 15.7654C43.1863 15.6754 43.1253 15.6004 42.9879 15.6004Z" fill="#869AAF"/>
<path d="M46.0876 16.0054V16.3954H45.9197V16.0054L45.584 15.4504H45.7824L46.0113 15.8554L46.2402 15.4504H46.4233L46.0876 16.0054Z" fill="#869AAF"/>
<path d="M44.1641 16.3953L44.0726 16.1853H43.6911L43.5995 16.3953H43.4316L43.8742 15.4353H43.9047L44.3473 16.3953H44.1641ZM43.8742 15.7353L43.7369 16.0503H44.0115L43.8742 15.7353Z" fill="#869AAF"/>
<path d="M45.3392 16.4103L44.744 15.7953V16.3953H44.5762V15.4503L44.6067 15.4353L45.2019 16.0503V15.4503H45.3545V16.4103H45.3392Z" fill="#869AAF"/>
<path d="M32.3976 15.9004V16.3054C32.2907 16.3654 32.1839 16.4104 32.0466 16.4104C31.7719 16.4104 31.543 16.2154 31.543 15.9304C31.543 15.6304 31.7871 15.4504 32.0466 15.4504C32.1839 15.4504 32.2907 15.4954 32.3823 15.5404L32.306 15.6754C32.2297 15.6304 32.1381 15.6004 32.0466 15.6004C31.8329 15.6004 31.7108 15.7504 31.7108 15.9454C31.7108 16.1404 31.8634 16.2904 32.0466 16.2904C32.1229 16.2904 32.1839 16.2754 32.245 16.2454V16.0654H32.016V15.9004H32.3976Z" fill="#869AAF"/>
<path d="M33.3145 16.3953L33.223 16.1853H32.8415L32.7499 16.3953H32.582L33.0246 15.4353H33.0551L33.4977 16.3953H33.3145ZM33.0246 15.7353L32.8872 16.0503H33.1619L33.0246 15.7353Z" fill="#869AAF"/>
<path d="M34.4896 16.4103L33.8944 15.7953V16.3953H33.7266V15.4503L33.7571 15.4353L34.3522 16.0503V15.4503H34.5049V16.4103H34.4896Z" fill="#869AAF"/>
<path d="M35.6029 16.4103L34.9924 15.7953V16.3953H34.8398V15.4503L34.8551 15.4353L35.4503 16.0503V15.4503H35.6181V16.4103H35.6029Z" fill="#869AAF"/>
<path d="M35.9375 16.3954V15.4504H36.5174V15.6004H36.1054V15.8554H36.4869V15.9904H36.1054V16.2454H36.5174V16.3954H35.9375Z" fill="#869AAF"/>
<path d="M37.2352 15.6004V16.3954H37.0826V15.6004H36.7773V15.4504H37.5404V15.6004H37.2352Z" fill="#869AAF"/>
<path d="M38.2114 15.6004V16.3954H38.0435V15.6004H37.7383V15.4504H38.5166V15.6004H38.2114Z" fill="#869AAF"/>
<path d="M51.9011 13.5004V12.9454H51.6875V12.8704H52.1911V12.9454H51.9774V13.5004H51.9011Z" fill="#869AAF"/>
<path d="M52.2832 13.5004V12.8704H52.4053L52.5579 13.3204C52.5732 13.3654 52.5884 13.3954 52.5884 13.4104C52.6037 13.3804 52.6037 13.3504 52.6189 13.3054L52.7715 12.8704H52.8784V13.5004H52.8021V12.9754L52.6189 13.5004H52.5426L52.3595 12.9604V13.5004H52.2832Z" fill="#869AAF"/>
<path d="M27.469 13.5C27.469 20.955 21.319 27 13.7345 27C6.15001 27 0 20.955 0 13.5C0 6.045 6.15001 0 13.7345 0C21.319 0 27.469 6.045 27.469 13.5Z" fill="#869AAF"/>
<path d="M29.4082 5.95551V2.89551H30.8122V5.56551C30.8122 6.09051 30.8732 6.61551 31.5752 6.61551C32.2772 6.61551 32.3382 6.10551 32.3382 5.56551V2.89551H33.7422V5.97051C33.7422 7.15551 32.9639 7.81551 31.5752 7.81551C30.156 7.81551 29.4082 7.15551 29.4082 5.95551Z" fill="#869AAF"/>
<path d="M34.123 7.11054L34.7945 6.19554C35.0387 6.49554 35.466 6.76554 35.9543 6.76554C36.3206 6.76554 36.5342 6.61554 36.5342 6.33054C36.5342 6.00054 36.2137 5.89554 35.6949 5.74554C34.9776 5.53554 34.352 5.17554 34.352 4.33554C34.352 3.42054 35.115 2.80554 36.1985 2.80554C36.9463 2.80554 37.5109 3.03054 37.8771 3.36054L37.2362 4.27554C37.0378 4.05054 36.6868 3.85554 36.2748 3.85554C35.9085 3.85554 35.7559 4.00554 35.7559 4.18554C35.7559 4.48554 36.1222 4.57554 36.5342 4.69554C37.3278 4.93554 37.9534 5.29554 37.9534 6.18054C37.9534 7.11054 37.282 7.80054 36.0459 7.80054C35.1302 7.81554 34.4283 7.42554 34.123 7.11054Z" fill="#869AAF"/>
<path d="M39.8141 2.89551H41.3554L43.1866 7.72551H41.7216L41.4927 7.03551H39.6462L39.4173 7.72551H37.998L39.8141 2.89551ZM41.1417 5.92551L40.7602 4.77051C40.6839 4.54551 40.6229 4.26051 40.5923 4.05051H40.5466C40.516 4.26051 40.455 4.54551 40.3787 4.77051L39.9972 5.92551H41.1417Z" fill="#869AAF"/>
<path d="M30.6431 9.79468H29.4375V8.66968H33.2679V9.79468H32.0471V13.4997H30.6431V9.79468Z" fill="#869AAF"/>
<path d="M33.3594 11.1002C33.3594 9.9152 34.2292 8.5802 36.0452 8.5802C37.8765 8.5802 38.7464 9.9002 38.7464 11.1002C38.7464 12.2852 37.8765 13.6052 36.0452 13.6052C34.2292 13.5902 33.3594 12.2702 33.3594 11.1002ZM37.2966 11.1002C37.2966 10.2302 36.7167 9.7802 36.0452 9.7802C35.3738 9.7802 34.7939 10.2302 34.7939 11.1002C34.7939 11.9552 35.3738 12.4052 36.0452 12.4052C36.732 12.3902 37.2966 11.9552 37.2966 11.1002Z" fill="#869AAF"/>
<path d="M39.25 8.66968H41.066C42.8057 8.66968 43.7976 9.56968 43.7976 11.0847C43.7976 12.5697 42.7752 13.4997 41.066 13.4997H39.25V8.66968ZM40.654 12.3897H40.9592C41.8596 12.3897 42.3479 11.9697 42.3479 11.0847C42.3479 10.2147 41.8596 9.77968 40.9592 9.77968H40.654V12.3897Z" fill="#869AAF"/>
<path d="M45.4309 8.66968H46.9722L48.8035 13.4997H47.3384L47.1095 12.8097H45.263L45.0188 13.4997H43.5996L45.4309 8.66968ZM46.7433 11.6997L46.3618 10.5447C46.2855 10.3197 46.2244 10.0347 46.1939 9.82468H46.1481C46.1176 10.0347 46.0566 10.3197 45.9803 10.5447L45.5987 11.6997H46.7433Z" fill="#869AAF"/>
<path d="M49.6574 11.7747L47.8262 8.66968H49.3675L50.039 9.85468C50.1763 10.1097 50.3747 10.4997 50.4205 10.7547H50.451C50.4968 10.4997 50.6952 10.1097 50.8325 9.85468L51.504 8.66968H52.9995L51.1682 11.7747V13.4997H49.688V11.7747" fill="#869AAF"/>
</svg>
