<svg width="41" height="21" viewBox="0 0 41 21" fill="none" xmlns="http://www.w3.org/2000/svg">
<g clip-path="url(#clip0)">
<path d="M38.7805 2.2602C38.7805 1.43149 38.9789 1.18776 39.574 1.04152L40.2187 0.846526V0.310305H34.0194V0.846526L34.7633 1.04152C35.3585 1.18776 35.7056 1.38275 35.7056 2.2602V16.4457C35.7056 18.4443 35.5073 20.0042 34.0194 20.0042C33.0771 20.0042 32.3332 19.273 32.3828 18.7368C32.482 17.8106 34.0194 17.8594 34.1682 16.3969C34.2674 15.3245 33.5731 14.8858 32.9284 14.7883C31.9861 14.6908 30.8454 15.422 30.8454 16.9819C30.7958 18.9806 32.1349 20.7842 34.4162 20.7842C36.8959 20.7842 38.8301 19.1268 38.8301 15.9582V2.2602H38.7805ZM29.5064 15.422C29.5064 9.32857 22.7615 7.76866 22.7615 3.33264C22.7615 2.40644 23.1087 0.992768 24.6461 0.992768C26.8283 0.992768 27.6218 3.72262 27.9689 7.08619H28.5641V0.310305H28.2169C28.0681 0.944021 27.8202 1.23651 27.4234 1.23651C26.7291 1.23651 26.3819 0.164062 24.6957 0.164062C22.1168 0.164062 20.381 2.2602 20.381 4.99005C20.381 9.96229 27.1258 12.0584 27.1258 16.6894C27.1258 18.7856 26.134 19.9555 24.7949 19.9555C22.7615 19.9555 21.4721 17.6156 21.0753 13.8621H20.4802V20.6867H20.8274C21.1249 19.7118 21.5217 19.6143 21.8689 19.6143C22.464 19.6143 23.0591 20.7842 24.7949 20.7842C27.473 20.7842 29.5064 18.5418 29.5064 15.422ZM6.0483 20.7355H7.28815L10.0654 6.20874H9.66868L12.7435 20.7355H13.8346L17.455 3.62513C17.8517 1.82147 18.0501 1.18776 18.794 1.04152L19.3891 0.895273V0.310305H15.1736V0.846526L15.8184 0.944021C16.7111 1.13901 16.9094 1.67523 16.5127 3.82012L14.1322 15.3245H14.4793L11.9996 3.23515C11.7516 2.06521 11.6028 1.13901 12.5947 0.944021L13.2395 0.846526V0.310305H7.48653V0.846526L7.88328 0.944021C8.47842 1.09026 8.5776 1.43149 8.82557 2.55268L9.76786 6.93995L9.56949 4.25884L7.48653 15.032H7.7345L5.30439 3.23515C5.05641 2.06521 4.95723 1.13901 5.89952 0.944021L6.34586 0.846526V0.310305H0.444153V0.846526L1.03928 0.992768C1.58482 1.13901 1.88238 1.38275 2.22954 3.04016L6.0483 20.7355Z" fill="#869AAF"/>
</g>
<defs>
<clipPath id="clip0">
<rect width="39.8242" height="20.5714" fill="white" transform="translate(0.444214 0.214355)"/>
</clipPath>
</defs>
</svg>
