<svg width="503" height="27" viewBox="0 0 503 27" fill="none" xmlns="http://www.w3.org/2000/svg">
<path d="M30.7345 16.3953L30.6429 16.1853H30.2614L30.1698 16.3953H30.002L30.4445 15.4353H30.475L30.9176 16.3953H30.7345ZM30.4445 15.7353L30.3072 16.0503H30.5819L30.4445 15.7353Z" fill="#869AAF"/>
<path d="M39.7532 16.4104C39.448 16.4104 39.2344 16.2004 39.2344 15.9304C39.2344 15.6454 39.448 15.4504 39.7532 15.4504C39.8753 15.4504 39.9821 15.4804 40.0584 15.5404L39.9974 15.6754C39.9211 15.6304 39.8295 15.6004 39.738 15.6004C39.5243 15.6004 39.4022 15.7354 39.4022 15.9304C39.4022 16.1254 39.5396 16.2604 39.738 16.2604C39.8295 16.2604 39.9211 16.2304 39.9974 16.1854L40.0432 16.3204C39.9974 16.3804 39.8753 16.4104 39.7532 16.4104Z" fill="#869AAF"/>
<path d="M40.7309 16.4104C40.4562 16.4104 40.2578 16.2004 40.2578 15.9304C40.2578 15.6454 40.4715 15.4504 40.7462 15.4504C41.0208 15.4504 41.2192 15.6604 41.2192 15.9304C41.2192 16.2004 41.0056 16.4104 40.7309 16.4104ZM40.7309 15.5854C40.5478 15.5854 40.4257 15.7354 40.4257 15.9304C40.4257 16.1254 40.5478 16.2754 40.7309 16.2754C40.914 16.2754 41.0361 16.1254 41.0361 15.9304C41.0514 15.7354 40.914 15.5854 40.7309 15.5854Z" fill="#869AAF"/>
<path d="M42.2404 16.3954L42.2252 15.8404L41.9352 16.2904H41.9047L41.5995 15.8404V16.3954H41.4316L41.4774 15.4504H41.4927L41.92 16.0654L42.332 15.4504H42.3625L42.4083 16.3954H42.2404Z" fill="#869AAF"/>
<path d="M42.9727 16.0954C42.9422 16.0954 42.9116 16.0954 42.8811 16.0954V16.3954H42.7285V15.4654C42.8201 15.4504 42.8964 15.4504 42.9727 15.4504C43.2321 15.4504 43.3695 15.5854 43.3695 15.7654C43.3542 15.9604 43.2169 16.0954 42.9727 16.0954ZM42.9879 15.6004C42.9574 15.6004 42.9116 15.6004 42.8811 15.6004V15.9454C42.9116 15.9454 42.9422 15.9454 42.9727 15.9454C43.1253 15.9454 43.1863 15.8704 43.1863 15.7654C43.1863 15.6754 43.1253 15.6004 42.9879 15.6004Z" fill="#869AAF"/>
<path d="M46.0876 16.0054V16.3954H45.9197V16.0054L45.584 15.4504H45.7824L46.0113 15.8554L46.2402 15.4504H46.4233L46.0876 16.0054Z" fill="#869AAF"/>
<path d="M44.1641 16.3953L44.0726 16.1853H43.6911L43.5995 16.3953H43.4316L43.8742 15.4353H43.9047L44.3473 16.3953H44.1641ZM43.8742 15.7353L43.7369 16.0503H44.0115L43.8742 15.7353Z" fill="#869AAF"/>
<path d="M45.3392 16.4103L44.744 15.7953V16.3953H44.5762V15.4503L44.6067 15.4353L45.2019 16.0503V15.4503H45.3545V16.4103H45.3392Z" fill="#869AAF"/>
<path d="M32.3976 15.9004V16.3054C32.2907 16.3654 32.1839 16.4104 32.0466 16.4104C31.7719 16.4104 31.543 16.2154 31.543 15.9304C31.543 15.6304 31.7871 15.4504 32.0466 15.4504C32.1839 15.4504 32.2907 15.4954 32.3823 15.5404L32.306 15.6754C32.2297 15.6304 32.1381 15.6004 32.0466 15.6004C31.8329 15.6004 31.7108 15.7504 31.7108 15.9454C31.7108 16.1404 31.8634 16.2904 32.0466 16.2904C32.1229 16.2904 32.1839 16.2754 32.245 16.2454V16.0654H32.016V15.9004H32.3976Z" fill="#869AAF"/>
<path d="M33.3145 16.3953L33.223 16.1853H32.8415L32.7499 16.3953H32.582L33.0246 15.4353H33.0551L33.4977 16.3953H33.3145ZM33.0246 15.7353L32.8872 16.0503H33.1619L33.0246 15.7353Z" fill="#869AAF"/>
<path d="M34.4896 16.4103L33.8944 15.7953V16.3953H33.7266V15.4503L33.7571 15.4353L34.3522 16.0503V15.4503H34.5049V16.4103H34.4896Z" fill="#869AAF"/>
<path d="M35.6029 16.4103L34.9924 15.7953V16.3953H34.8398V15.4503L34.8551 15.4353L35.4503 16.0503V15.4503H35.6181V16.4103H35.6029Z" fill="#869AAF"/>
<path d="M35.9375 16.3954V15.4504H36.5174V15.6004H36.1054V15.8554H36.4869V15.9904H36.1054V16.2454H36.5174V16.3954H35.9375Z" fill="#869AAF"/>
<path d="M37.2352 15.6004V16.3954H37.0826V15.6004H36.7773V15.4504H37.5404V15.6004H37.2352Z" fill="#869AAF"/>
<path d="M38.2114 15.6004V16.3954H38.0435V15.6004H37.7383V15.4504H38.5166V15.6004H38.2114Z" fill="#869AAF"/>
<path d="M51.9011 13.5004V12.9454H51.6875V12.8704H52.1911V12.9454H51.9774V13.5004H51.9011Z" fill="#869AAF"/>
<path d="M52.2832 13.5004V12.8704H52.4053L52.5579 13.3204C52.5732 13.3654 52.5884 13.3954 52.5884 13.4104C52.6037 13.3804 52.6037 13.3504 52.6189 13.3054L52.7715 12.8704H52.8784V13.5004H52.8021V12.9754L52.6189 13.5004H52.5426L52.3595 12.9604V13.5004H52.2832Z" fill="#869AAF"/>
<path d="M27.469 13.5C27.469 20.955 21.319 27 13.7345 27C6.15001 27 0 20.955 0 13.5C0 6.045 6.15001 0 13.7345 0C21.319 0 27.469 6.045 27.469 13.5Z" fill="#869AAF"/>
<path d="M29.4082 5.95551V2.89551H30.8122V5.56551C30.8122 6.09051 30.8732 6.61551 31.5752 6.61551C32.2772 6.61551 32.3382 6.10551 32.3382 5.56551V2.89551H33.7422V5.97051C33.7422 7.15551 32.9639 7.81551 31.5752 7.81551C30.156 7.81551 29.4082 7.15551 29.4082 5.95551Z" fill="#869AAF"/>
<path d="M34.123 7.11054L34.7945 6.19554C35.0387 6.49554 35.466 6.76554 35.9543 6.76554C36.3206 6.76554 36.5342 6.61554 36.5342 6.33054C36.5342 6.00054 36.2137 5.89554 35.6949 5.74554C34.9776 5.53554 34.352 5.17554 34.352 4.33554C34.352 3.42054 35.115 2.80554 36.1985 2.80554C36.9463 2.80554 37.5109 3.03054 37.8771 3.36054L37.2362 4.27554C37.0378 4.05054 36.6868 3.85554 36.2748 3.85554C35.9085 3.85554 35.7559 4.00554 35.7559 4.18554C35.7559 4.48554 36.1222 4.57554 36.5342 4.69554C37.3278 4.93554 37.9534 5.29554 37.9534 6.18054C37.9534 7.11054 37.282 7.80054 36.0459 7.80054C35.1302 7.81554 34.4283 7.42554 34.123 7.11054Z" fill="#869AAF"/>
<path d="M39.8141 2.89551H41.3554L43.1866 7.72551H41.7216L41.4927 7.03551H39.6462L39.4173 7.72551H37.998L39.8141 2.89551ZM41.1417 5.92551L40.7602 4.77051C40.6839 4.54551 40.6229 4.26051 40.5923 4.05051H40.5466C40.516 4.26051 40.455 4.54551 40.3787 4.77051L39.9972 5.92551H41.1417Z" fill="#869AAF"/>
<path d="M30.6431 9.79468H29.4375V8.66968H33.2679V9.79468H32.0471V13.4997H30.6431V9.79468Z" fill="#869AAF"/>
<path d="M33.3594 11.1002C33.3594 9.9152 34.2292 8.5802 36.0452 8.5802C37.8765 8.5802 38.7464 9.9002 38.7464 11.1002C38.7464 12.2852 37.8765 13.6052 36.0452 13.6052C34.2292 13.5902 33.3594 12.2702 33.3594 11.1002ZM37.2966 11.1002C37.2966 10.2302 36.7167 9.7802 36.0452 9.7802C35.3738 9.7802 34.7939 10.2302 34.7939 11.1002C34.7939 11.9552 35.3738 12.4052 36.0452 12.4052C36.732 12.3902 37.2966 11.9552 37.2966 11.1002Z" fill="#869AAF"/>
<path d="M39.25 8.66968H41.066C42.8057 8.66968 43.7976 9.56968 43.7976 11.0847C43.7976 12.5697 42.7752 13.4997 41.066 13.4997H39.25V8.66968ZM40.654 12.3897H40.9592C41.8596 12.3897 42.3479 11.9697 42.3479 11.0847C42.3479 10.2147 41.8596 9.77968 40.9592 9.77968H40.654V12.3897Z" fill="#869AAF"/>
<path d="M45.4309 8.66968H46.9722L48.8035 13.4997H47.3384L47.1095 12.8097H45.263L45.0188 13.4997H43.5996L45.4309 8.66968ZM46.7433 11.6997L46.3618 10.5447C46.2855 10.3197 46.2244 10.0347 46.1939 9.82468H46.1481C46.1176 10.0347 46.0566 10.3197 45.9803 10.5447L45.5987 11.6997H46.7433Z" fill="#869AAF"/>
<path d="M49.6574 11.7747L47.8262 8.66968H49.3675L50.039 9.85468C50.1763 10.1097 50.3747 10.4997 50.4205 10.7547H50.451C50.4968 10.4997 50.6952 10.1097 50.8325 9.85468L51.504 8.66968H52.9995L51.1682 11.7747V13.4997H49.688V11.7747" fill="#869AAF"/>
<path d="M124.908 9.7583C123.776 9.7583 122.886 9.9957 121.995 10.474C121.995 7.92642 121.995 5.61975 122.078 4.82605L116.653 5.77919V6.25754L117.219 6.33549C117.947 6.49494 118.192 6.89178 118.351 7.84847C118.513 9.7583 118.434 19.9452 118.351 21.6141C119.807 21.933 121.346 22.1704 122.886 22.1704C127.175 22.1704 129.767 19.5449 129.767 15.4063C129.767 12.1465 127.662 9.7583 124.908 9.7583ZM123.048 21.2952C122.723 21.2952 122.32 21.2952 122.074 21.2173C121.992 20.1047 121.912 15.4063 121.992 11.2713C122.478 11.1118 122.803 11.0339 123.206 11.0339C124.987 11.0339 125.96 13.1032 125.96 15.6472C125.964 18.8291 124.749 21.2952 123.048 21.2952ZM96.2494 5.1414H81.9995V5.85715L82.8106 5.9351C83.8632 6.09455 84.267 6.73234 84.4292 8.24178C84.6743 11.1083 84.5914 16.2815 84.4292 18.7441C84.267 20.2571 83.8632 20.9728 82.8106 21.0507L81.9995 21.2102V21.848H91.1486V21.2102L90.1753 21.0507C89.1227 20.9728 88.7189 20.2571 88.5567 18.7441C88.4738 17.7094 88.3945 16.037 88.3945 13.9677L90.3375 14.0457C91.5523 14.0457 92.1183 15.0024 92.3598 16.3524H93.088V10.7114H92.3598C92.1183 12.065 91.5523 13.0217 90.3375 13.0217L88.3945 13.1032C88.3945 10.3961 88.4738 7.85201 88.5567 6.33903H91.3901C93.5782 6.33903 94.7102 7.69257 95.5176 10.0807L96.3287 9.84334L96.2494 5.1414Z" fill="#869AAF"/>
<path d="M100.866 9.59874C104.914 9.59874 106.94 12.3058 106.94 15.8845C106.94 19.3073 104.673 22.1738 100.625 22.1738C96.5765 22.1738 94.5542 19.4668 94.5542 15.8845C94.5506 12.4617 96.818 9.59874 100.866 9.59874ZM100.625 10.396C98.844 10.396 98.3573 12.7841 98.3573 15.8881C98.3573 18.9105 99.1684 21.3802 100.787 21.3802C102.647 21.3802 103.134 18.992 103.134 15.8881C103.134 12.8621 102.323 10.396 100.625 10.396ZM130.822 15.966C130.822 12.7027 132.928 9.59874 137.055 9.59874C140.455 9.59874 142.073 12.0649 142.073 15.3282H134.543C134.46 18.2727 135.92 20.4199 138.832 20.4199C140.127 20.4199 140.775 20.101 141.586 19.5447L141.911 19.9416C141.1 21.0542 139.319 22.1703 137.055 22.1703C133.411 22.1738 130.822 19.6262 130.822 15.966ZM134.546 14.453L138.353 14.3715C138.353 12.7806 138.111 10.3924 136.734 10.3924C135.357 10.396 134.626 12.6212 134.546 14.453ZM151.712 10.2365C150.739 9.83968 149.445 9.59874 147.989 9.59874C144.993 9.59874 143.129 11.3491 143.129 13.4184C143.129 15.4877 144.503 16.3629 146.449 17.0007C148.472 17.7164 149.041 18.2727 149.041 19.2294C149.041 20.1861 148.313 21.0577 147.015 21.0577C145.476 21.0577 144.344 20.1825 143.454 17.7944L142.888 17.9538L142.971 21.4546C143.944 21.8514 145.725 22.1703 147.26 22.1703C150.418 22.1703 152.444 20.5794 152.444 18.1132C152.444 16.4408 151.554 15.4877 149.449 14.6904C147.181 13.8152 146.374 13.2589 146.374 12.2243C146.374 11.1897 147.102 10.4739 148.075 10.4739C149.532 10.4739 150.505 11.3491 151.233 13.4999L151.799 13.3404L151.712 10.2365ZM117.463 9.91763C116.086 9.12394 113.656 9.52078 112.362 12.3838L112.441 9.59874L107.02 10.6334V11.1117L107.586 11.1897C108.314 11.2712 108.638 11.668 108.721 12.7027C108.883 14.6125 108.801 17.9538 108.721 19.6262C108.638 20.5794 108.317 21.0577 107.586 21.1392L107.02 21.2207V21.8585H114.55V21.2207L113.577 21.1392C112.766 21.0577 112.524 20.5829 112.441 19.6262C112.279 18.1132 112.279 15.0908 112.362 13.181C112.766 12.6247 114.547 12.1464 116.165 13.181L117.463 9.91763Z" fill="#869AAF"/>
<g clip-path="url(#clip0)">
<path d="M219.78 5.2602C219.78 4.43149 219.979 4.18776 220.574 4.04152L221.219 3.84653V3.3103H215.019V3.84653L215.763 4.04152C216.358 4.18776 216.706 4.38275 216.706 5.2602V19.4457C216.706 21.4443 216.507 23.0042 215.019 23.0042C214.077 23.0042 213.333 22.273 213.383 21.7368C213.482 20.8106 215.019 20.8594 215.168 19.3969C215.267 18.3245 214.573 17.8858 213.928 17.7883C212.986 17.6908 211.845 18.422 211.845 19.9819C211.796 21.9806 213.135 23.7842 215.416 23.7842C217.896 23.7842 219.83 22.1268 219.83 18.9582V5.2602H219.78ZM210.506 18.422C210.506 12.3286 203.762 10.7687 203.762 6.33264C203.762 5.40644 204.109 3.99277 205.646 3.99277C207.828 3.99277 208.622 6.72262 208.969 10.0862H209.564V3.3103H209.217C209.068 3.94402 208.82 4.23651 208.423 4.23651C207.729 4.23651 207.382 3.16406 205.696 3.16406C203.117 3.16406 201.381 5.2602 201.381 7.99005C201.381 12.9623 208.126 15.0584 208.126 19.6894C208.126 21.7856 207.134 22.9555 205.795 22.9555C203.762 22.9555 202.472 20.6156 202.075 16.8621H201.48V23.6867H201.827C202.125 22.7118 202.522 22.6143 202.869 22.6143C203.464 22.6143 204.059 23.7842 205.795 23.7842C208.473 23.7842 210.506 21.5418 210.506 18.422ZM187.048 23.7355H188.288L191.065 9.20874H190.669L193.744 23.7355H194.835L198.455 6.62513C198.852 4.82147 199.05 4.18776 199.794 4.04152L200.389 3.89527V3.3103H196.174V3.84653L196.818 3.94402C197.711 4.13901 197.909 4.67523 197.513 6.82012L195.132 18.3245H195.479L193 6.23515C192.752 5.06521 192.603 4.13901 193.595 3.94402L194.239 3.84653V3.3103H188.487V3.84653L188.883 3.94402C189.478 4.09026 189.578 4.43149 189.826 5.55268L190.768 9.93995L190.569 7.25884L188.487 18.032H188.735L186.304 6.23515C186.056 5.06521 185.957 4.13901 186.9 3.94402L187.346 3.84653V3.3103H181.444V3.84653L182.039 3.99277C182.585 4.13901 182.882 4.38275 183.23 6.04016L187.048 23.7355Z" fill="#869AAF"/>
</g>
<path d="M329.822 5.2282H325.211L323.343 6.60559L323.664 5.19934H319.1L318.363 5.84324C318.177 5.73743 317.797 5.51949 317.601 5.39143C317.31 5.23271 316.664 5.2282 316.591 5.2282H309.503L308.533 5.9698C308.286 5.74915 307.662 5.25315 306.884 5.09082C305.477 4.76406 305.111 4.82268 304.656 4.84492C304.517 4.85184 304.375 4.85875 304.211 4.85875C303.211 4.85875 302.131 5.19423 301.638 5.36768L301.657 5.19874L297.034 5.2288L295.088 6.7589L295.036 5.2288H290.53L289.512 5.9689L289.797 5.2285H285.758L284.122 6.38434L284.071 5.2285H280.029L278.753 6.16339L278.652 5.19994H267.75L267.64 5.25706L267.67 5.19784L263.541 5.2288L262.245 6.15467L262.066 5.19994H257.724L254.161 8.00161L250.268 22.0602H254.11L256.121 20.6037L256.332 22.0602H260.076L260.618 21.6108L260.776 21.6252L261.043 22.0602H268.457L270.099 20.8797L269.903 22.0602H273.634L275.908 20.4955L275.529 22.0602H279.335L283.146 19.2435L287.706 10.062L288.414 16.0188L286.683 22.0602H290.876L293.617 19.9926C293.882 20.5054 294.7 21.8383 296.137 22.0572C296.607 22.1438 297.374 22.1723 297.406 22.1735H297.413C297.995 22.1735 298.352 22.1684 298.949 22.0569C299.651 21.9258 300.035 21.7653 300.672 21.4977L300.721 21.4776C301.361 21.2086 302.172 20.7213 302.627 20.4357L302.291 22.0599H306.26L307.778 21.0342L307.517 22.0599H315.865L317.685 20.7709L318.113 22.0599H322.726L326.357 19.1981L324.703 11.5828L329.821 5.2279L329.822 5.2282Z" fill="#869AAF"/>
<path d="M360.041 5.19985L359.251 5.73493C359.053 5.61619 358.6 5.35136 358.251 5.21248C357.321 4.84273 356.705 4.81657 355.725 4.8307C354.535 4.84874 353.714 4.97109 352.522 5.58914C351.995 5.86269 351.355 6.38575 351.059 6.63826C350.861 6.30759 350.414 5.64475 349.899 5.41479C348.713 4.8767 347.956 4.8776 346.726 4.91578C345.594 4.95125 344.937 5.08712 343.917 5.49685C343.208 5.78243 342.317 6.39567 341.956 6.65329C341.816 6.411 341.552 5.97482 341.345 5.75147C341.053 5.36819 340.283 5.21879 340.196 5.20316L333.017 5.20015L329.685 7.80222L325.647 22.0601H329.753L333.429 19.2915L333.926 17.7975C334.152 17.8014 334.645 17.8035 335.006 17.7659C335.269 17.7379 335.61 17.6703 335.841 17.6207C335.755 18.1627 335.615 19.4256 336.019 20.2041C336.774 21.6603 338.117 21.9567 339.455 22.0598C339.763 22.0859 340.037 22.0989 340.292 22.0989C341.204 22.0989 341.885 21.932 342.822 21.6251C343.772 21.314 344.988 20.5399 345.392 20.2724C345.618 20.5489 346.176 21.1952 346.701 21.4968C347.448 21.9266 347.995 21.9789 348.825 22.0589C349.122 22.0881 349.387 22.1019 349.636 22.1019C350.501 22.1019 351.205 21.9405 352.236 21.5067C353.226 21.0957 354.698 20.169 355.387 19.7211L354.809 21.9468H358.707L362.328 19.2332L364.817 10.6703L367.797 8.16746L368.623 5.20045H360.041L360.041 5.19985Z" fill="#869AAF"/>
<path d="M267.002 5.68276H264.163L262.324 11.6559L261.654 5.68276H258.03L254.489 18.633L254.47 18.7051H257.25L259.321 11.716L260.105 18.7051H263.209L266.981 5.75491L267.002 5.68276ZM286.212 5.68276L283.096 11.8633L283.702 5.74589L283.709 5.68366H280.6L277.661 11.7349L278.264 5.74589L278.27 5.68276H268.039L264.44 18.633L264.42 18.7051H271.421L272.271 16.3165H268.39L269.283 13.2461H272.811L273.541 10.8574H269.955L270.844 8.12791H274.616L273.868 18.6441L273.864 18.7048H277.029L280.371 11.6958L279.647 18.7051H282.697L289.077 5.76483L289.117 5.68306L286.212 5.68276ZM307.101 12.3473L307.13 12.3518L308.077 9.09497H308.061C308.073 9.03575 308.101 8.93174 308.127 8.83043C308.258 8.32962 308.501 7.39803 308.375 6.92247C308.088 5.6058 307.152 5.3593 306.767 5.31421C305.886 5.15188 305.65 5.15008 305.019 5.14407L304.819 5.14226C304.378 5.13806 304.094 5.13415 303.624 5.20088C302.919 5.30069 302.524 5.39027 301.9 5.68937C301.486 5.88777 301.264 6.02906 300.905 6.32215C300.249 6.85904 299.589 7.99564 299.556 8.05667L297.241 16.4196C297.231 16.4635 297.017 17.5144 297.365 18.0534C297.554 18.348 297.754 18.4682 298.03 18.6336L298.135 18.6967C298.724 19.0556 299.158 19.1158 299.816 19.2059L299.893 19.2168C300.208 19.2604 300.474 19.2805 300.73 19.2805C301.115 19.2805 301.476 19.2342 301.936 19.1596C302.569 19.0565 302.958 18.9847 303.571 18.7003C304.051 18.4779 304.314 18.3095 304.741 17.953C305.23 17.5442 305.866 16.7103 305.915 16.56H305.916C306.239 15.4255 307.087 12.4588 307.127 12.3605L307.102 12.3485L307.101 12.3473ZM318.296 6.86295C318.226 6.59541 318.145 6.4451 317.966 6.24279C317.78 6.03237 317.629 5.9497 317.399 5.83156C317.267 5.76392 317.053 5.68937 317.044 5.68637L309.865 5.68336L306.266 18.633L306.246 18.7051H309.489L311.051 13.4733L312.386 13.4724C312.495 13.4926 312.795 13.5776 312.865 13.7249C312.912 13.825 312.878 14.0186 312.861 14.0845L311.646 18.6333L311.627 18.7045H315.043L316.443 13.8317C316.452 13.8037 316.658 13.1505 316.437 12.8162C316.327 12.6521 316.217 12.5841 316.065 12.49L316.014 12.4582C315.898 12.386 315.732 12.3175 315.616 12.2736C315.789 12.1969 316.093 12.0563 316.302 11.9294L316.391 11.8762C316.601 11.7499 316.753 11.6592 316.949 11.4665C317.075 11.3426 317.236 11.128 317.244 11.119L318.296 7.62529C318.3 7.60605 318.372 7.15033 318.296 6.86295ZM339.634 13.4505C339.799 13.2359 339.871 13.0609 339.956 12.8583C339.99 12.775 340.026 12.6863 340.073 12.5877C340.846 10.9434 341.403 8.11017 341.407 8.08823C341.414 8.06538 341.584 7.52609 341.465 7.17618C341.444 7.08901 341.437 7.00784 341.432 6.92908C341.423 6.80884 341.414 6.68379 341.346 6.5407C341.236 6.30502 341.115 6.1959 340.926 6.03778C340.784 5.91844 340.671 5.86553 340.539 5.8042C340.471 5.77294 340.397 5.73807 340.31 5.69057L340.296 5.68336H333.44L329.754 18.6336L329.734 18.7057H332.919L334.134 14.7837C334.346 14.7927 335.272 14.8324 336.059 14.8324C336.585 14.8324 336.948 14.815 337.139 14.7807C337.644 14.6935 337.97 14.5844 338.44 14.343C338.945 14.0845 339.279 13.9131 339.634 13.4514L339.634 13.4505ZM350.549 7.11967C350.532 7.05263 350.518 6.9859 350.504 6.92037C350.436 6.60052 350.373 6.29811 350.085 6.14359C349.734 5.91423 349.458 5.73296 349.008 5.57244C348.421 5.36351 348.032 5.34487 347.443 5.31692L347.371 5.31391C347.161 5.30339 346.993 5.29888 346.839 5.29888C346.42 5.29888 346.062 5.33495 345.564 5.42814C345.041 5.52614 344.743 5.59949 344.251 5.8009C343.662 6.04259 343.312 6.22416 342.79 6.66365C342.419 6.97478 341.962 7.55705 341.942 7.5817L339.356 16.3685C339.351 16.4142 339.251 17.5024 339.626 18.054C339.852 18.3883 340.068 18.5221 340.396 18.7244C340.936 19.0589 341.354 19.1122 341.931 19.1873C342.003 19.1963 342.077 19.2053 342.154 19.2162C342.524 19.2661 342.812 19.2883 343.09 19.2883C343.416 19.2883 343.736 19.2589 344.195 19.1873C344.866 19.0827 345.247 19.0039 345.831 18.7274C346.327 18.4935 346.602 18.3116 347.002 17.9509C347.475 17.5246 348.013 16.7094 348.058 16.5606H348.059C348.398 15.4498 349.285 12.5454 349.328 12.4462L349.301 12.4326L349.332 12.4368L350.337 8.95278H350.321C350.331 8.91009 350.348 8.84516 350.366 8.78143C350.475 8.38553 350.676 7.64814 350.548 7.12027" fill="white"/>
<path d="M346.987 8.04597C346.914 7.90348 346.609 7.82713 346.366 7.78835C346.288 7.77572 346.211 7.76941 346.137 7.76941C345.825 7.76941 345.579 7.87823 345.289 8.02072C345.042 8.14216 344.81 8.6526 344.796 8.68116L342.771 15.5086C342.764 15.5416 342.593 16.3232 343.068 16.5409C343.285 16.6211 343.525 16.6948 343.799 16.6948C343.853 16.6948 343.907 16.6918 343.962 16.6864C344.218 16.6575 344.429 16.5505 344.598 16.4645L344.677 16.4242C344.93 16.2905 345.024 16.0214 345.08 15.8603C345.09 15.8317 345.102 15.7984 345.111 15.7767H345.113C345.174 15.7767 345.194 15.7767 346.847 9.84872L347.103 8.83627C347.11 8.82124 347.288 8.45931 346.987 8.04567" fill="#869AAF"/>
<path d="M294.8 10.1666L294.518 5.68359H291.215L292.264 13.356L290.802 18.7054H293.987L295.5 13.555L300.936 5.68359H297.672L294.8 10.1666ZM321.834 9.7881L323.003 5.68329H319.644L315.756 18.6326L315.734 18.7054H319.239L320.946 13.1742L321.973 18.6588L321.981 18.7051H325.659L324.146 11.4974L328.758 5.77498L328.832 5.68299H325.62L321.834 9.7881ZM360.37 5.68299L359.732 8.01481H361.784L358.739 18.6329L358.718 18.7051H361.876L364.942 8.12814H367.14L367.847 5.75574L367.868 5.68299H360.37ZM357.137 12.4184C356.913 12.0869 356.711 11.89 356.478 11.6621C356.375 11.5629 356.267 11.4568 356.147 11.3308C355.967 11.1399 355.811 10.992 355.662 10.8499C355.464 10.6605 355.277 10.4825 355.05 10.2237C354.967 10.1287 354.889 10.0514 354.814 9.97628C354.647 9.81095 354.504 9.66816 354.393 9.41054C354.258 9.0979 354.169 8.89199 354.225 8.56402C354.258 8.36412 354.284 8.24448 354.412 8.1101C354.51 8.0079 354.603 7.98385 354.744 7.94717L354.819 7.92733C355.007 7.87563 355.11 7.85038 355.288 7.87202C355.496 7.89757 355.618 7.9583 355.775 8.11161C355.902 8.23576 355.954 8.32564 355.992 8.48196C356.023 8.61573 356.007 8.71132 355.985 8.83187C355.977 8.88447 355.967 8.94009 355.961 9.00381L355.959 9.02185C355.938 9.23047 355.926 9.35643 355.876 9.56505C355.828 9.76345 355.706 10.0659 355.705 10.0689L355.673 10.147H358.868L358.88 10.1055C358.882 10.0983 359.091 9.37416 359.199 8.90912C359.23 8.77625 359.262 8.66172 359.294 8.5538C359.366 8.30069 359.429 8.08185 359.432 7.75929V7.72022C359.437 7.23383 359.44 6.88272 359.162 6.44864C358.967 6.14352 358.786 5.99833 358.48 5.80594C358.172 5.61235 357.952 5.55643 357.62 5.47076L357.567 5.45723C357.204 5.36404 356.975 5.34721 356.629 5.32196L356.386 5.30392C356.141 5.28468 355.947 5.26965 355.742 5.26965C355.548 5.26965 355.357 5.28378 355.143 5.31384C354.952 5.3409 354.814 5.37697 354.668 5.41545C354.583 5.43829 354.494 5.46174 354.387 5.48549C354.257 5.51405 354.147 5.53148 354.04 5.54802C353.855 5.57748 353.679 5.60513 353.453 5.6872C353.093 5.81826 352.89 5.95715 352.609 6.15014L352.486 6.23371C352.172 6.44714 351.994 6.5764 351.726 6.83793L351.654 6.90707C351.447 7.10848 351.297 7.25277 351.138 7.53234C351 7.77523 350.951 7.94597 350.881 8.18165L350.844 8.31181C350.755 8.61152 350.71 8.76814 350.668 9.05913L350.652 9.17246C350.608 9.47006 350.577 9.6859 350.64 10.0157C350.686 10.2583 350.755 10.4004 350.85 10.5976L350.904 10.7113C351.096 11.118 351.298 11.3636 351.532 11.6477C351.628 11.7649 351.728 11.8861 351.836 12.0294C352.109 12.3902 352.264 12.594 352.561 12.9421C352.7 13.1044 352.818 13.2277 352.931 13.3467C353.054 13.4754 353.171 13.5971 353.313 13.7664C353.364 13.8265 353.41 13.8785 353.454 13.9272C353.561 14.0462 353.646 14.1406 353.742 14.2993L353.766 14.3399C353.898 14.5564 353.978 14.6871 354.024 14.9351C354.074 15.2045 354.068 15.365 353.997 15.6205C353.937 15.8309 353.897 15.9572 353.75 16.1075C353.574 16.2885 353.421 16.363 353.147 16.4036C353.058 16.4165 352.986 16.4222 352.919 16.4222C352.757 16.4222 352.62 16.3847 352.46 16.296C352.279 16.1968 352.191 16.13 352.107 15.9773C352.025 15.8294 352.026 15.7176 352.027 15.5484V15.4925C352.027 15.3427 352.056 15.2435 352.092 15.1182C352.108 15.0629 352.125 15.004 352.141 14.9363C352.19 14.7283 352.284 14.4027 352.285 14.3991L352.306 14.327H349.009L348.994 14.3619C348.989 14.373 348.877 14.6402 348.819 14.8209C348.75 15.0334 348.721 15.1786 348.685 15.3632C348.672 15.4257 348.659 15.4919 348.644 15.5661C348.616 15.6954 348.586 15.8078 348.557 15.9133C348.491 16.1604 348.434 16.3738 348.44 16.6877C348.448 17.0574 348.481 17.2988 348.647 17.6758C348.774 17.962 348.877 18.1399 349.123 18.3762C349.331 18.5758 349.499 18.6558 349.733 18.7661L349.832 18.813C350.315 19.0444 350.628 19.1076 351.18 19.1878C351.443 19.226 351.671 19.2437 351.898 19.2437C352.16 19.2437 352.408 19.2215 352.756 19.1878C353.439 19.1217 353.829 19.0667 354.447 18.8433C354.908 18.6771 355.169 18.5487 355.616 18.2692C356.02 18.0158 356.266 17.8552 356.61 17.4924C356.955 17.1293 357.127 16.8801 357.344 16.4258C357.582 15.9268 357.654 15.6223 357.725 15.1302C357.818 14.48 357.859 14.1127 357.694 13.515C357.567 13.0557 357.407 12.8191 357.137 12.4187" fill="white"/>
<path d="M304.774 8.03356C304.604 7.84418 304.416 7.81111 304.187 7.78706C303.977 7.76452 303.854 7.79518 303.647 7.84538C303.457 7.89137 303.353 7.92655 303.195 8.02274C303.062 8.10571 302.901 8.28126 302.894 8.28908L300.741 15.5322C300.736 15.5479 300.623 15.9164 300.714 16.1389C300.792 16.3331 300.915 16.4245 301.089 16.5095C301.197 16.563 301.299 16.5856 301.428 16.5856C301.479 16.5856 301.532 16.5826 301.589 16.5787C301.623 16.5763 301.658 16.5739 301.71 16.5718C301.982 16.5597 302.178 16.5507 302.419 16.3923C302.594 16.2781 302.682 16.1837 302.785 16.0033C302.814 15.9516 302.824 15.877 302.833 15.8109C302.836 15.7929 302.839 15.7676 302.843 15.7478H302.85C302.91 15.7478 302.931 15.7478 304.584 9.81888L304.841 8.80462C304.846 8.7926 304.973 8.50762 304.931 8.31523C304.904 8.18597 304.849 8.11683 304.774 8.03326L304.774 8.03356ZM314.623 8.5461C314.617 8.51303 314.615 8.48087 314.612 8.44991C314.603 8.33958 314.593 8.23497 314.489 8.14268C314.398 8.06242 314.32 8.03687 314.199 8.01523C314.114 7.99959 313.929 8.01342 313.929 8.01402H312.642L311.675 11.0682L311.652 11.1416H313.391L313.402 11.1373C313.413 11.1325 313.682 11.0237 313.823 10.8999C313.991 10.7526 314.05 10.6071 314.119 10.4387C314.139 10.39 314.16 10.3383 314.185 10.2833C314.306 10.0179 314.351 9.83782 314.414 9.58891L314.449 9.44943C314.473 9.35233 314.503 9.26726 314.531 9.18489C314.602 8.98048 314.663 8.80402 314.622 8.5461" fill="#869AAF"/>
<path d="M337.926 8.23499C337.846 8.13518 337.762 8.09821 337.665 8.05552C337.641 8.0447 337.616 8.03328 337.588 8.02005C337.425 7.94129 337.207 7.90161 336.939 7.90161C336.491 7.90161 336.063 8.01193 336.045 8.01674L336.012 8.02486L334.789 12.2069L334.776 12.2499L334.816 12.2719C334.823 12.2764 335.011 12.3819 335.147 12.4192C335.245 12.4468 335.333 12.4582 335.437 12.4582C335.483 12.4582 335.529 12.4564 335.579 12.4543C335.612 12.4525 335.647 12.4513 335.686 12.4501L335.743 12.4489C335.966 12.4429 336.113 12.4393 336.339 12.3617C336.671 12.2487 336.868 12.102 337.09 11.8014C337.216 11.6316 337.26 11.4906 337.311 11.3273C337.333 11.2591 337.356 11.1861 337.387 11.1058C337.626 10.4826 337.878 9.46027 337.88 9.45305C337.884 9.43892 337.988 9.10134 337.998 8.87047C338.001 8.81336 338.008 8.75925 338.014 8.70754C338.035 8.54461 338.054 8.3907 337.928 8.23559" fill="#869AAF"/>
<path fill-rule="evenodd" clip-rule="evenodd" d="M412.605 4.84371C412.136 4.84371 411.667 4.84371 411.198 4.84371C411.145 4.84371 411.093 4.82652 411.076 4.89525C411.059 4.96398 411.041 5.01553 411.006 5.06707C410.954 5.20453 410.885 5.34199 410.815 5.47945C410.763 5.63409 410.711 5.78872 410.659 5.94336C410.641 6.01209 410.607 6.098 410.589 6.16673C410.555 6.26982 410.502 6.35573 410.468 6.45882C410.45 6.47601 410.45 6.49319 410.45 6.52755C410.416 6.59628 410.363 6.68219 410.346 6.75092C410.311 6.83683 410.294 6.93992 410.259 7.04302C410.207 7.18047 410.12 7.31793 410.068 7.45539C410.016 7.61003 409.964 7.76467 409.912 7.91931C409.894 7.98803 409.859 8.07395 409.842 8.14268C409.79 8.28013 409.72 8.41759 409.651 8.55505C409.616 8.64096 409.599 8.72687 409.564 8.81278C409.495 8.9846 409.425 9.15642 409.355 9.32824C409.321 9.39697 409.303 9.48288 409.269 9.55161C409.234 9.63752 409.182 9.72343 409.147 9.82652C409.112 9.91243 409.095 9.99834 409.06 10.0843C409.043 10.153 409.008 10.2217 408.973 10.3076C408.938 10.3935 408.904 10.4623 408.869 10.5482C408.834 10.6341 408.817 10.72 408.782 10.7887C408.747 10.8746 408.695 10.9605 408.66 11.0465C408.626 11.1324 408.608 11.2183 408.573 11.3042C408.556 11.3729 408.521 11.4416 408.504 11.5104C408.469 11.6135 408.417 11.7166 408.382 11.8196C408.348 11.8884 408.33 11.9743 408.295 12.043C408.261 12.1289 408.208 12.2148 408.174 12.3007C408.139 12.3867 408.122 12.4726 408.087 12.5757C408.069 12.6444 408.035 12.7303 408 12.799C407.965 12.8849 407.93 12.9709 407.896 13.0396C407.861 13.1255 407.844 13.2286 407.809 13.3145C407.757 13.4519 407.687 13.5894 407.618 13.7269C407.565 13.8643 407.513 14.0018 407.461 14.1564C407.444 14.1564 407.444 14.1564 407.426 14.1564C407.392 14.0705 407.357 13.9674 407.322 13.8815C407.287 13.7956 407.27 13.7269 407.235 13.641C407.201 13.555 407.148 13.4691 407.114 13.3832C407.079 13.2973 407.061 13.2114 407.027 13.1255C406.992 13.0224 406.94 12.9193 406.905 12.799C406.87 12.7303 406.853 12.6444 406.818 12.5757C406.783 12.4898 406.731 12.4038 406.697 12.3179C406.662 12.232 406.644 12.1461 406.61 12.0602C406.575 11.9571 406.523 11.854 406.488 11.7509C406.453 11.6822 406.436 11.5963 406.401 11.5276C406.349 11.3901 406.279 11.2526 406.21 11.1152C406.14 10.9434 406.071 10.7715 406.001 10.5825C405.932 10.4107 405.862 10.2217 405.793 10.0499C405.741 9.89525 405.689 9.74061 405.636 9.58597C405.636 9.56879 405.619 9.55161 405.619 9.55161C405.584 9.48288 405.532 9.41415 405.515 9.32824C405.48 9.24233 405.463 9.13924 405.428 9.03614C405.411 8.9846 405.376 8.91587 405.358 8.86432C405.324 8.77841 405.271 8.6925 405.237 8.58941C405.202 8.5035 405.185 8.41759 405.15 8.33167C405.115 8.22858 405.063 8.12549 405.028 8.0224C404.993 7.95367 404.976 7.86776 404.941 7.79903C404.907 7.71312 404.854 7.62721 404.82 7.5413C404.785 7.45539 404.768 7.36948 404.733 7.28357C404.715 7.21484 404.681 7.14611 404.646 7.0602C404.611 6.97429 404.576 6.90556 404.542 6.81965C404.507 6.73374 404.489 6.63065 404.455 6.54474C404.403 6.3901 404.333 6.23546 404.264 6.08082C404.229 6.01209 404.211 5.92618 404.177 5.85745C404.142 5.75436 404.09 5.65127 404.055 5.54817C404.02 5.47945 404.003 5.39353 403.968 5.3248C403.933 5.23889 403.881 5.15299 403.846 5.04989C403.829 4.9468 403.777 4.89525 403.655 4.89525C401.691 4.89525 399.71 4.89525 397.747 4.89525H397.625V4.99834C397.625 10.5825 397.625 16.1667 397.625 21.7509C397.625 21.8884 397.625 21.9056 397.781 21.9056C399.154 21.9056 400.527 21.9056 401.9 21.9056C402.056 21.9056 402.056 21.9056 402.056 21.7337C402.056 20.2904 402.056 18.8471 402.056 17.4038C402.056 15.2733 402.056 13.1255 402.056 10.9949C402.056 10.9434 402.056 10.8918 402.074 10.8231C402.091 10.8231 402.091 10.8231 402.109 10.8231C402.126 10.8746 402.126 10.909 402.143 10.9605C402.178 11.0465 402.23 11.1495 402.265 11.2355C402.3 11.3214 402.317 11.4073 402.352 11.4932C402.387 11.5963 402.439 11.6994 402.474 11.8025C402.508 11.8712 402.526 11.9571 402.56 12.0258C402.595 12.1289 402.647 12.232 402.682 12.3351C402.717 12.421 402.734 12.4898 402.769 12.5757C402.804 12.6616 402.856 12.7303 402.873 12.8162C402.908 12.9021 402.925 13.0052 402.96 13.0911C402.978 13.1599 402.995 13.2114 403.03 13.2629C403.064 13.3489 403.117 13.4348 403.151 13.5207C403.186 13.6066 403.203 13.6925 403.238 13.7784C403.29 13.9159 403.36 14.0533 403.429 14.1736C403.499 14.3454 403.568 14.5172 403.638 14.7062C403.69 14.8609 403.742 15.0155 403.794 15.153C403.812 15.2217 403.846 15.3076 403.881 15.3763C403.916 15.4794 403.968 15.5825 404.003 15.6856C404.003 15.7028 404.02 15.72 404.02 15.7544C404.055 15.8403 404.09 15.909 404.124 15.9949C404.159 16.0808 404.177 16.1839 404.211 16.2698C404.264 16.4073 404.333 16.5447 404.403 16.665C404.455 16.7681 404.489 16.8884 404.542 17.0086C404.594 17.1633 404.646 17.3179 404.698 17.4726C404.715 17.5413 404.75 17.61 404.785 17.6959C404.854 17.8506 404.907 18.0052 404.976 18.1599C405.011 18.2458 405.028 18.3145 405.063 18.4004C405.098 18.4863 405.15 18.5722 405.185 18.6581C405.202 18.7097 405.237 18.7784 405.254 18.83C405.289 18.9159 405.306 19.0018 405.341 19.0877C405.376 19.1736 405.428 19.2767 405.463 19.3626C405.497 19.4485 405.515 19.5344 405.55 19.6203C405.584 19.7234 405.636 19.8265 405.671 19.9468C405.706 20.0155 405.723 20.1014 405.758 20.1702C405.793 20.2733 405.845 20.3763 405.88 20.4794C405.915 20.5482 405.932 20.6341 405.967 20.7028C406.001 20.7887 406.054 20.8746 406.088 20.9605C406.123 21.0293 406.14 21.0808 406.158 21.1495C406.193 21.2354 406.21 21.3214 406.245 21.3901C406.279 21.4932 406.349 21.5963 406.366 21.6994C406.401 21.8196 406.488 21.9227 406.627 21.9227C407.183 21.9227 407.739 21.9227 408.295 21.9227C408.33 21.9227 408.382 21.8884 408.417 21.8712C408.504 21.8368 408.469 21.7509 408.504 21.6822C408.556 21.5447 408.643 21.4073 408.695 21.2698C408.747 21.1152 408.799 20.9605 408.851 20.8059C408.869 20.7372 408.904 20.6513 408.938 20.5825C408.973 20.5138 409.008 20.4279 409.043 20.3592C409.077 20.2732 409.095 20.1702 409.13 20.0671C409.147 19.9983 409.164 19.9468 409.199 19.8952C409.234 19.8093 409.286 19.7062 409.321 19.6203C409.355 19.5344 409.373 19.4485 409.408 19.3798C409.442 19.2939 409.495 19.208 409.529 19.1221C409.564 19.0361 409.581 18.9502 409.616 18.8643C409.634 18.7956 409.668 18.7097 409.703 18.6409C409.738 18.5722 409.773 18.5035 409.807 18.4176C409.842 18.3317 409.859 18.2458 409.894 18.1599C409.929 18.0396 409.981 17.9365 410.033 17.8162C410.033 17.799 410.051 17.7818 410.051 17.7647C410.085 17.6788 410.138 17.61 410.155 17.5241C410.19 17.4382 410.207 17.3351 410.242 17.2492C410.311 17.0946 410.363 16.9399 410.433 16.7681C410.468 16.6994 410.485 16.6135 410.52 16.5275C410.555 16.4416 410.607 16.3385 410.641 16.2526C410.676 16.1667 410.694 16.0808 410.728 15.9949C410.763 15.8918 410.815 15.7887 410.85 15.6856C410.885 15.6169 410.902 15.531 410.937 15.4623C410.989 15.3248 411.059 15.1873 411.128 15.0499C411.18 14.8952 411.232 14.7406 411.285 14.586C411.302 14.5172 411.337 14.4485 411.371 14.3626C411.406 14.2767 411.441 14.1908 411.476 14.1049C411.51 14.019 411.528 13.933 411.563 13.8471C411.632 13.6925 411.684 13.5379 411.754 13.3832C411.788 13.3145 411.806 13.2286 411.841 13.1599C411.875 13.0568 411.928 12.9709 411.962 12.8678C411.997 12.7818 412.014 12.6959 412.049 12.6272C412.084 12.5413 412.136 12.4554 412.171 12.3695C412.206 12.2836 412.223 12.1977 412.258 12.1117C412.327 11.9399 412.397 11.7681 412.466 11.5963C412.466 11.5791 412.484 11.5619 412.484 11.5619C412.518 11.476 412.571 11.4073 412.588 11.3214C412.623 11.2355 412.64 11.1324 412.675 11.0465C412.692 10.9949 412.727 10.9262 412.762 10.8746C412.779 10.8746 412.779 10.8746 412.796 10.8746C412.796 10.9262 412.814 10.9949 412.814 11.0465C412.814 14.6032 412.814 18.177 412.814 21.7337C412.814 21.9056 412.849 21.9399 413.04 21.9399C414.395 21.9399 415.751 21.9399 417.089 21.9399C417.263 21.9399 417.263 21.9399 417.263 21.7681V5.06707V4.84371H417.124H412.605Z" fill="#869AAF"/>
<path fill-rule="evenodd" clip-rule="evenodd" d="M430.331 13.5031C430.314 13.3828 430.331 13.2453 430.314 13.1251C430.279 12.9704 430.244 12.8158 430.192 12.6611C430.157 12.5409 430.14 12.4206 430.123 12.3003C430.123 12.3003 430.123 12.2831 430.105 12.2831C430.07 12.1972 430.018 12.1113 429.984 12.0082C429.949 11.9223 429.931 11.8364 429.897 11.7677C429.879 11.7161 429.827 11.6646 429.792 11.613C429.74 11.5271 429.688 11.4412 429.636 11.3725C429.566 11.2694 429.514 11.1663 429.445 11.0804C429.341 10.9429 429.202 10.8227 429.097 10.7024C428.923 10.5134 428.715 10.3416 428.489 10.2041C428.402 10.1526 428.298 10.101 428.211 10.0495C428.089 9.98073 427.968 9.912 427.829 9.86046C427.776 9.82609 427.707 9.80891 427.655 9.79172C427.568 9.75736 427.498 9.70582 427.412 9.67145C427.307 9.63709 427.203 9.61991 427.116 9.58554C426.994 9.55118 426.89 9.49963 426.768 9.46527C426.56 9.41372 426.334 9.36217 426.125 9.32781C425.934 9.29345 425.743 9.25908 425.569 9.25908C425.1 9.2419 424.614 9.2419 424.144 9.2419C423.901 9.2419 423.675 9.22472 423.432 9.29344C423.241 9.36217 423.032 9.34499 422.824 9.37935C422.667 9.39654 422.511 9.4309 422.354 9.44808H422.337C422.198 9.48245 422.076 9.53399 421.937 9.56836C421.833 9.60272 421.711 9.61991 421.607 9.65427C421.538 9.67145 421.451 9.70582 421.381 9.74018C421.312 9.77454 421.225 9.82609 421.155 9.84327C421.016 9.89482 420.86 9.92918 420.703 9.99791C420.564 10.0495 420.425 10.1354 420.304 10.2041C420.251 10.2385 420.199 10.2556 420.147 10.29C420.06 10.3416 419.973 10.4103 419.887 10.4618C419.8 10.5134 419.678 10.5649 419.591 10.6165C419.487 10.6852 419.383 10.7883 419.278 10.857C419.157 10.9601 419.018 11.046 418.879 11.1491C418.896 11.1491 418.896 11.1663 418.913 11.1663C418.931 11.2178 418.948 11.2694 418.983 11.3209C419.035 11.424 419.105 11.5271 419.174 11.6474C419.226 11.7505 419.278 11.8536 419.33 11.9395C419.383 12.0426 419.452 12.1457 419.522 12.2488C419.574 12.3519 419.626 12.4721 419.695 12.5752C419.765 12.7127 419.852 12.8501 419.939 12.9704C420.008 13.0907 420.078 13.2282 420.147 13.3484C420.217 13.4859 420.304 13.6233 420.356 13.7608C420.391 13.8467 420.46 13.8123 420.495 13.7952C420.599 13.7264 420.686 13.6233 420.79 13.5546C420.999 13.4172 421.207 13.3141 421.416 13.1938C421.624 13.0907 421.833 12.9704 422.041 12.8845C422.163 12.833 422.302 12.7814 422.441 12.7471C422.615 12.6955 422.771 12.644 422.945 12.6096C423.119 12.5752 423.293 12.5409 423.467 12.5409C423.692 12.5237 423.918 12.5409 424.144 12.5409C424.231 12.5409 424.301 12.5409 424.388 12.558C424.561 12.5924 424.718 12.644 424.892 12.6783C425.048 12.6955 425.17 12.7642 425.309 12.8158C425.482 12.8845 425.656 12.9876 425.795 13.1079C425.917 13.211 426.021 13.3312 426.125 13.4687C426.178 13.5374 426.212 13.6233 426.265 13.7093C426.334 13.8123 426.386 13.9498 426.386 14.0701C426.404 14.4653 426.386 14.8605 426.386 15.2556C426.386 15.3244 426.386 15.3759 426.386 15.4275C426.386 15.4446 426.334 15.4618 426.317 15.4618C426.282 15.4275 426.265 15.3931 426.23 15.3759C426.143 15.29 426.073 15.2213 425.986 15.1525C425.865 15.0666 425.743 14.9979 425.622 14.912C425.517 14.8433 425.43 14.7745 425.326 14.7402C425.204 14.6886 425.083 14.6371 424.961 14.5855C424.822 14.5168 424.683 14.4481 424.527 14.3965C424.388 14.3622 424.249 14.345 424.11 14.3106C424.092 14.3106 424.092 14.3106 424.075 14.3106C423.936 14.2763 423.814 14.2247 423.675 14.1903C423.501 14.156 423.31 14.156 423.136 14.1388C422.615 14.0873 422.094 14.1216 421.59 14.1903C421.485 14.2075 421.381 14.2247 421.259 14.2591C421.242 14.2591 421.225 14.2763 421.207 14.2763C421.086 14.3106 420.981 14.345 420.877 14.3794C420.79 14.4137 420.686 14.4309 420.599 14.4653C420.443 14.534 420.286 14.6371 420.13 14.723C420.026 14.7745 419.921 14.8089 419.834 14.8776C419.695 14.9807 419.556 15.0838 419.435 15.2041C419.313 15.3244 419.174 15.4618 419.07 15.5993C418.983 15.7024 418.913 15.8227 418.844 15.9257C418.757 16.0632 418.67 16.2178 418.583 16.3725C418.548 16.4412 418.531 16.5099 418.514 16.5615C418.479 16.6646 418.461 16.7677 418.427 16.8708C418.392 16.991 418.34 17.1285 418.305 17.2488C418.27 17.4206 418.253 17.5924 418.236 17.7814C418.218 17.9361 418.218 18.0907 418.236 18.2453C418.253 18.4172 418.27 18.6062 418.288 18.778C418.305 18.9326 418.34 19.0701 418.357 19.2247C418.375 19.3106 418.392 19.3794 418.427 19.4653C418.461 19.5512 418.514 19.6371 418.548 19.723C418.583 19.7917 418.601 19.8776 418.635 19.9292C418.687 20.0495 418.757 20.1525 418.826 20.2556C418.913 20.3931 419.018 20.5306 419.122 20.668C419.261 20.8227 419.417 20.9773 419.574 21.1147C419.695 21.2178 419.817 21.3209 419.956 21.4068C420.043 21.4756 420.147 21.5099 420.251 21.5615C420.373 21.6302 420.495 21.6989 420.616 21.7505C420.686 21.7848 420.773 21.8192 420.86 21.8536C420.947 21.8879 421.034 21.9223 421.12 21.9567C421.242 21.991 421.364 21.991 421.468 22.0426C421.659 22.1285 421.85 22.1285 422.041 22.1457C422.493 22.1629 422.945 22.2144 423.38 22.1113C423.571 22.0769 423.762 22.0598 423.953 22.0254C423.971 22.0254 423.971 22.0254 423.988 22.0082C424.092 21.9739 424.196 21.9223 424.301 21.8879C424.405 21.8536 424.509 21.8364 424.596 21.802C424.753 21.7505 424.892 21.6646 425.048 21.613C425.1 21.5958 425.17 21.5615 425.222 21.5271C425.343 21.4412 425.465 21.3553 425.604 21.2694C425.726 21.1835 425.847 21.1319 425.969 21.046C426.073 20.9601 426.16 20.8742 426.247 20.7883C426.265 20.7711 426.282 20.7539 426.299 20.7367C426.317 20.7711 426.334 20.7883 426.334 20.8226C426.334 21.1147 426.334 21.3897 426.334 21.6818C426.334 21.8364 426.369 21.8708 426.525 21.8708C427.742 21.8708 428.941 21.8708 430.157 21.8708C430.296 21.8708 430.349 21.8192 430.349 21.6818C430.349 20.3244 430.366 18.9498 430.349 17.5924C430.366 16.2178 430.453 14.8605 430.331 13.5031ZM426.195 18.8982C426.073 19.0185 425.917 19.1044 425.761 19.1903C425.604 19.2591 425.465 19.345 425.291 19.3965C425.065 19.4653 424.822 19.4996 424.596 19.534C424.388 19.5684 424.196 19.5855 423.988 19.5684C423.814 19.5684 423.623 19.5512 423.467 19.4996C423.241 19.4309 423.015 19.345 422.824 19.2419C422.65 19.1388 422.493 19.0013 422.389 18.8295C422.32 18.7092 422.267 18.5718 422.233 18.4343C422.198 18.3141 422.163 18.1938 422.198 18.0735C422.215 17.9361 422.285 17.8158 422.32 17.6783C422.372 17.4721 422.528 17.3347 422.685 17.1972C422.771 17.1285 422.876 17.0769 422.963 17.0254C423.032 16.991 423.102 16.9567 423.171 16.9051L423.188 16.8879C423.31 16.8536 423.414 16.8364 423.536 16.802C423.901 16.6989 424.266 16.7161 424.631 16.7505C424.805 16.7677 424.996 16.7677 425.17 16.8536C425.257 16.9051 425.378 16.9051 425.465 16.9395C425.535 16.9739 425.622 17.0082 425.691 17.0426C425.743 17.0769 425.813 17.1113 425.865 17.1285C426.056 17.2316 426.23 17.3519 426.351 17.5409C426.369 17.558 426.369 17.5924 426.369 17.6268C426.369 17.7986 426.369 17.9532 426.369 18.1251C426.369 18.2625 426.351 18.3828 426.369 18.5202C426.386 18.6921 426.299 18.7952 426.195 18.8982Z" fill="#869AAF"/>
<path fill-rule="evenodd" clip-rule="evenodd" d="M468.826 13.5031C468.808 13.3828 468.826 13.2453 468.808 13.1251C468.774 12.9704 468.739 12.8158 468.687 12.6611C468.652 12.5409 468.634 12.4206 468.617 12.3003C468.617 12.3003 468.617 12.2831 468.6 12.2831C468.565 12.1972 468.513 12.1113 468.478 12.0082C468.443 11.9223 468.426 11.8364 468.391 11.7677C468.374 11.7161 468.322 11.6646 468.287 11.613C468.235 11.5271 468.183 11.4412 468.131 11.3725C468.061 11.2694 468.009 11.1663 467.939 11.0804C467.835 10.9429 467.696 10.8227 467.592 10.7024C467.418 10.5134 467.209 10.3416 466.984 10.2041C466.897 10.1526 466.792 10.101 466.705 10.0495C466.584 9.98073 466.462 9.912 466.323 9.86046C466.271 9.82609 466.201 9.80891 466.149 9.79172C466.062 9.75736 465.993 9.70582 465.906 9.67145C465.802 9.63709 465.697 9.61991 465.611 9.58554C465.489 9.55118 465.385 9.49963 465.263 9.46527C465.054 9.41372 464.829 9.36217 464.62 9.32781C464.429 9.29345 464.238 9.25908 464.064 9.25908C463.595 9.2419 463.108 9.2419 462.639 9.2419C462.396 9.2419 462.17 9.22472 461.926 9.29344C461.735 9.36217 461.527 9.34499 461.318 9.37935C461.162 9.39654 461.005 9.4309 460.849 9.44808H460.831C460.692 9.48245 460.571 9.53399 460.432 9.56836C460.327 9.60272 460.206 9.61991 460.102 9.65427C460.032 9.67145 459.945 9.70582 459.876 9.74018C459.806 9.77454 459.719 9.82609 459.65 9.84327C459.511 9.89482 459.354 9.92918 459.215 9.99791C459.076 10.0495 458.937 10.1354 458.816 10.2041C458.763 10.2385 458.711 10.2556 458.659 10.29C458.572 10.3416 458.485 10.4103 458.398 10.4618C458.312 10.5134 458.19 10.5649 458.103 10.6165C457.999 10.6852 457.894 10.7883 457.79 10.857C457.669 10.9601 457.53 11.046 457.39 11.1491C457.408 11.1491 457.408 11.1663 457.425 11.1663C457.443 11.2178 457.46 11.2694 457.495 11.3209C457.547 11.424 457.616 11.5271 457.686 11.6474C457.738 11.7505 457.79 11.8536 457.842 11.9395C457.894 12.0426 457.964 12.1457 458.034 12.2488C458.086 12.3519 458.138 12.4721 458.207 12.5752C458.277 12.7127 458.364 12.8501 458.451 12.9704C458.52 13.0907 458.59 13.2282 458.659 13.3484C458.729 13.4859 458.816 13.6233 458.868 13.7608C458.902 13.8467 458.972 13.8123 459.007 13.7952C459.111 13.7264 459.198 13.6233 459.302 13.5546C459.511 13.4172 459.719 13.3141 459.928 13.1938C460.136 13.0907 460.345 12.9704 460.553 12.8845C460.675 12.833 460.814 12.7814 460.953 12.7471C461.127 12.6955 461.283 12.644 461.457 12.6096C461.631 12.5752 461.805 12.5409 461.978 12.5409C462.204 12.5237 462.43 12.5409 462.656 12.5409C462.743 12.5409 462.813 12.5409 462.9 12.558C463.073 12.5924 463.23 12.644 463.404 12.6783C463.56 12.6955 463.682 12.7642 463.821 12.8158C463.994 12.8845 464.168 12.9876 464.307 13.1079C464.429 13.211 464.533 13.3312 464.637 13.4687C464.69 13.5374 464.724 13.6233 464.776 13.7093C464.846 13.8123 464.898 13.9498 464.898 14.0701C464.915 14.4653 464.898 14.8605 464.898 15.2556C464.898 15.3244 464.898 15.3759 464.898 15.4275C464.898 15.4446 464.846 15.4618 464.829 15.4618C464.794 15.4275 464.776 15.3931 464.742 15.3759C464.655 15.29 464.585 15.2213 464.498 15.1525C464.377 15.0666 464.255 14.9979 464.133 14.912C464.029 14.8433 463.942 14.7745 463.838 14.7402C463.716 14.6886 463.595 14.6371 463.473 14.5855C463.334 14.5168 463.195 14.4481 463.039 14.3965C462.9 14.3622 462.761 14.345 462.639 14.3106C462.621 14.3106 462.621 14.3106 462.604 14.3106C462.465 14.2763 462.343 14.2247 462.204 14.1903C462.031 14.156 461.839 14.156 461.666 14.1388C461.144 14.0873 460.623 14.1216 460.119 14.1903C460.015 14.2075 459.91 14.2247 459.789 14.2591C459.771 14.2591 459.754 14.2763 459.737 14.2763C459.615 14.3106 459.511 14.345 459.406 14.3794C459.32 14.4137 459.215 14.4309 459.128 14.4653C458.972 14.534 458.816 14.6371 458.659 14.723C458.555 14.7745 458.451 14.8089 458.364 14.8776C458.225 14.9807 458.086 15.0838 457.964 15.2041C457.842 15.3244 457.703 15.4618 457.599 15.5993C457.512 15.7024 457.443 15.8227 457.373 15.9257C457.286 16.0632 457.199 16.2178 457.112 16.3725C457.078 16.4412 457.06 16.5099 457.043 16.5615C457.008 16.6646 456.991 16.7677 456.956 16.8708C456.921 16.991 456.869 17.1285 456.834 17.2488C456.8 17.4206 456.782 17.5924 456.765 17.7814C456.747 17.9361 456.747 18.0907 456.765 18.2453C456.782 18.4172 456.8 18.6062 456.817 18.778C456.834 18.9326 456.869 19.0701 456.887 19.2247C456.904 19.3106 456.921 19.3794 456.956 19.4653C456.991 19.5512 457.043 19.6371 457.078 19.723C457.112 19.7917 457.13 19.8776 457.165 19.9292C457.217 20.0495 457.286 20.1525 457.356 20.2556C457.443 20.3931 457.547 20.5306 457.651 20.668C457.79 20.8227 457.947 20.9773 458.103 21.1147C458.225 21.2178 458.346 21.3209 458.485 21.4068C458.572 21.4756 458.677 21.5099 458.781 21.5615C458.902 21.6302 459.024 21.6989 459.146 21.7505C459.215 21.7848 459.302 21.8192 459.389 21.8536C459.476 21.8879 459.563 21.9223 459.65 21.9567C459.771 21.991 459.893 21.991 459.997 22.0426C460.188 22.1285 460.38 22.1285 460.571 22.1457C461.023 22.1629 461.474 22.2144 461.909 22.1113C462.1 22.0769 462.291 22.0598 462.482 22.0254C462.5 22.0254 462.5 22.0254 462.517 22.0082C462.621 21.9739 462.726 21.9223 462.83 21.8879C462.934 21.8536 463.039 21.8364 463.125 21.802C463.282 21.7505 463.421 21.6646 463.577 21.613C463.629 21.5958 463.699 21.5615 463.751 21.5271C463.873 21.4412 463.994 21.3553 464.133 21.2694C464.255 21.1835 464.377 21.1319 464.498 21.046C464.603 20.9601 464.69 20.8742 464.776 20.7883C464.794 20.7711 464.811 20.7539 464.829 20.7367C464.846 20.7711 464.863 20.7883 464.863 20.8226C464.863 21.1147 464.863 21.3897 464.863 21.6818C464.863 21.8364 464.898 21.8708 465.054 21.8708C466.271 21.8708 467.47 21.8708 468.687 21.8708C468.826 21.8708 468.878 21.8192 468.878 21.6818C468.878 20.3244 468.895 18.9498 468.878 17.5924C468.86 16.2178 468.947 14.8605 468.826 13.5031ZM464.707 18.8982C464.585 19.0185 464.429 19.1044 464.272 19.1903C464.116 19.2591 463.977 19.345 463.803 19.3965C463.577 19.4653 463.334 19.4996 463.108 19.534C462.9 19.5684 462.708 19.5855 462.5 19.5684C462.326 19.5684 462.135 19.5512 461.978 19.4996C461.753 19.4309 461.527 19.345 461.335 19.2419C461.162 19.1388 461.005 19.0013 460.901 18.8295C460.831 18.7092 460.779 18.5718 460.745 18.4343C460.71 18.3141 460.675 18.1938 460.71 18.0735C460.727 17.9361 460.797 17.8158 460.831 17.6783C460.884 17.4721 461.04 17.3347 461.196 17.1972C461.283 17.1285 461.388 17.0769 461.474 17.0254C461.544 16.991 461.614 16.9567 461.683 16.9051L461.7 16.8879C461.822 16.8536 461.944 16.8364 462.048 16.802C462.413 16.6989 462.778 16.7161 463.143 16.7505C463.317 16.7677 463.508 16.7677 463.682 16.8536C463.768 16.9051 463.89 16.9051 463.977 16.9395C464.047 16.9739 464.133 17.0082 464.203 17.0426C464.255 17.0769 464.325 17.1113 464.377 17.1285C464.568 17.2316 464.742 17.3519 464.863 17.5409C464.881 17.558 464.881 17.5924 464.881 17.6268C464.881 17.7986 464.881 17.9532 464.881 18.1251C464.881 18.2625 464.863 18.3828 464.881 18.5202C464.898 18.6921 464.811 18.7952 464.707 18.8982Z" fill="#869AAF"/>
<path fill-rule="evenodd" clip-rule="evenodd" d="M442.512 16.9566C442.46 16.8191 442.425 16.6817 442.373 16.5614C442.303 16.3896 442.251 16.2349 442.147 16.0803C442.043 15.9256 441.886 15.7882 441.765 15.6335C441.521 15.3414 441.226 15.1181 440.913 14.9291C440.739 14.826 440.548 14.7401 440.374 14.6542C440.235 14.6026 440.096 14.5511 439.957 14.5167C439.888 14.4823 439.801 14.4652 439.714 14.448C439.627 14.4136 439.523 14.3621 439.436 14.3277C439.297 14.2933 439.158 14.2762 439.019 14.2418C439.002 14.2418 438.984 14.2418 438.967 14.2418C438.828 14.2074 438.706 14.1559 438.567 14.1215C438.393 14.0872 438.202 14.07 438.028 14.0356H438.011C437.837 14.0012 437.663 13.9497 437.472 13.9153C437.264 13.881 437.055 13.8638 436.847 13.8294H436.829C436.673 13.7951 436.534 13.7435 436.377 13.7091C436.238 13.6748 436.117 13.6576 435.978 13.6232C435.96 13.6232 435.96 13.6232 435.943 13.6061C435.873 13.5717 435.804 13.5201 435.734 13.503C435.613 13.4686 435.422 13.2452 435.439 13.1078C435.456 13.039 435.491 12.9875 435.491 12.9188C435.526 12.7469 435.682 12.6439 435.804 12.5579C435.943 12.4548 436.134 12.4033 436.29 12.3518C436.464 12.3002 436.655 12.283 436.829 12.283C437.09 12.283 437.368 12.3174 437.629 12.3346C437.82 12.3518 437.994 12.3861 438.185 12.4033C438.272 12.4205 438.359 12.4548 438.445 12.472C438.463 12.472 438.48 12.472 438.48 12.4892C438.584 12.5236 438.689 12.5751 438.793 12.6095C438.88 12.6439 438.984 12.661 439.088 12.6954C439.141 12.7126 439.193 12.7469 439.262 12.7813C439.332 12.8157 439.401 12.85 439.453 12.8844C439.558 12.9359 439.679 12.9875 439.784 13.039C439.87 13.0906 439.94 13.1593 440.027 13.2109C440.183 13.314 440.34 13.417 440.479 13.5373C440.6 13.6404 440.618 13.6576 440.687 13.503C440.739 13.3999 440.774 13.314 440.826 13.228C440.878 13.1249 440.948 13.0219 441.017 12.9188C441.087 12.8157 441.139 12.7126 441.191 12.5923C441.243 12.4892 441.296 12.3861 441.348 12.283C441.4 12.1628 441.452 12.0597 441.521 11.9394C441.626 11.7676 441.73 11.5957 441.834 11.4239C441.904 11.3208 441.956 11.2006 442.025 11.0975C442.078 11.0115 442.095 10.9085 442.13 10.8225C441.973 10.7195 441.834 10.6507 441.713 10.5648C441.608 10.4961 441.504 10.4445 441.4 10.3758C441.348 10.3414 441.296 10.3243 441.243 10.2899C441.139 10.2384 441.035 10.1696 440.931 10.1181C440.809 10.0665 440.687 10.015 440.566 9.96344C440.513 9.94626 440.461 9.91189 440.409 9.89471C440.305 9.86035 440.218 9.8088 440.114 9.77444C440.027 9.74008 439.94 9.72289 439.87 9.70571C439.784 9.67134 439.679 9.6198 439.592 9.58544C439.453 9.55107 439.314 9.53389 439.175 9.49952C439.158 9.49952 439.158 9.49952 439.141 9.49952C439.019 9.46516 438.897 9.41361 438.758 9.37925C438.637 9.36207 438.532 9.34488 438.411 9.31052C438.219 9.25897 438.011 9.24179 437.802 9.24179C437.611 9.22461 437.403 9.22461 437.212 9.22461C436.725 9.24179 436.221 9.19024 435.734 9.29334C435.561 9.3277 435.369 9.34488 435.178 9.37925H435.161C435.039 9.41361 434.918 9.46516 434.796 9.49952C434.692 9.53389 434.587 9.53389 434.483 9.58544C434.344 9.63698 434.205 9.70571 434.083 9.77444C433.962 9.82599 433.84 9.87753 433.718 9.92908C433.666 9.94626 433.614 9.98062 433.562 10.015C433.475 10.0665 433.406 10.1353 433.319 10.1868C433.197 10.2727 433.075 10.3414 432.954 10.4445C432.832 10.5305 432.728 10.6335 432.624 10.7366C432.554 10.8054 432.467 10.8913 432.398 10.9772C432.311 11.0975 432.224 11.2177 432.154 11.338C432.067 11.4755 431.981 11.6301 431.911 11.7676C431.876 11.8363 431.842 11.9222 431.824 11.9909C431.789 12.094 431.737 12.1971 431.702 12.3174C431.685 12.3518 431.702 12.3689 431.685 12.4033C431.65 12.5751 431.581 12.7469 431.563 12.9188C431.546 13.1078 431.546 13.314 431.563 13.503C431.581 13.7263 431.616 13.9669 431.633 14.1902C431.633 14.2074 431.633 14.2074 431.65 14.2246C431.685 14.3449 431.737 14.4823 431.772 14.6026C431.789 14.6885 431.824 14.7744 431.859 14.8432C431.911 14.9463 431.981 15.0493 432.05 15.1524C432.12 15.2727 432.189 15.4102 432.276 15.5133C432.415 15.6679 432.571 15.8225 432.728 15.96C432.849 16.0631 432.971 16.1662 433.093 16.2521C433.18 16.3208 433.301 16.3552 433.406 16.4067C433.527 16.4755 433.649 16.5442 433.771 16.5957C433.84 16.6301 433.927 16.6473 434.014 16.6817C434.101 16.716 434.17 16.7676 434.24 16.7847C434.344 16.8191 434.448 16.8363 434.553 16.8707C434.709 16.905 434.865 16.9566 435.039 17.0081C435.057 17.0081 435.074 17.0081 435.091 17.0081C435.23 17.0425 435.352 17.1112 435.491 17.1284C435.717 17.1628 435.943 17.1971 436.151 17.2658C436.29 17.3002 436.429 17.283 436.586 17.3346C436.708 17.3861 436.847 17.3689 436.986 17.4033C437.229 17.4548 437.49 17.472 437.733 17.5408C437.872 17.5751 438.011 17.5923 438.15 17.6267C438.167 17.6267 438.167 17.6267 438.185 17.6267C438.306 17.6954 438.411 17.7469 438.532 17.8157C438.689 17.8844 438.776 18.0047 438.81 18.1593C438.845 18.3311 438.776 18.503 438.654 18.6576C438.532 18.7951 438.411 18.881 438.237 18.9325C438.08 18.9841 437.941 19.0356 437.785 19.0528C437.594 19.0872 437.403 19.0356 437.212 19.1043C437.177 19.1215 437.107 19.1043 437.072 19.1043C437.02 19.0871 436.951 19.07 436.899 19.07C436.621 19.0356 436.343 19.0184 436.065 18.9841C436.047 18.9841 436.047 18.9841 436.03 18.9669C435.891 18.9325 435.752 18.881 435.613 18.8466C435.508 18.8122 435.404 18.7951 435.3 18.7607C435.23 18.7435 435.161 18.7091 435.091 18.692C435.004 18.6576 434.918 18.606 434.831 18.5717C434.744 18.5373 434.657 18.5201 434.57 18.4858C434.414 18.3999 434.257 18.314 434.083 18.228C433.962 18.1593 433.823 18.0906 433.701 18.0219C433.527 17.9359 433.353 17.85 433.197 17.7298C433.058 17.6267 432.919 17.5064 432.797 17.4033C432.241 18.3311 431.702 19.2762 431.146 20.2212C431.181 20.2555 431.216 20.2727 431.251 20.3071C431.407 20.4445 431.563 20.5648 431.737 20.6679C431.894 20.7538 432.033 20.8913 432.189 20.9772C432.345 21.0631 432.502 21.1318 432.676 21.2006C432.728 21.2177 432.78 21.2521 432.832 21.2693C432.919 21.3036 433.023 21.3552 433.11 21.3896C433.128 21.4067 433.145 21.4067 433.18 21.4067C433.267 21.4411 433.336 21.4926 433.423 21.5098C433.51 21.5442 433.614 21.5614 433.718 21.5957C433.892 21.6473 434.049 21.7332 434.222 21.7847C434.361 21.8191 434.5 21.8363 434.639 21.8707C434.657 21.8707 434.657 21.8707 434.674 21.8707C434.831 21.905 434.97 21.9566 435.126 21.9909C435.248 22.0253 435.387 22.0081 435.508 22.0425C435.717 22.094 435.943 22.1284 436.151 22.1112C436.794 22.094 437.455 22.1799 438.098 22.0597C438.219 22.0425 438.341 22.0597 438.463 22.0425C438.654 22.0081 438.828 21.9566 439.019 21.9222C439.158 21.8878 439.28 21.8707 439.419 21.8363C439.505 21.8191 439.575 21.7847 439.662 21.7676C439.749 21.7332 439.853 21.6816 439.94 21.6473C440.027 21.6129 440.114 21.5957 440.183 21.5614C440.34 21.4755 440.496 21.3896 440.652 21.3036C440.826 21.2005 441 21.0975 441.174 20.9772C441.313 20.8741 441.452 20.7538 441.591 20.6164C441.713 20.4961 441.834 20.3758 441.939 20.2384C442.043 20.1009 442.13 19.9291 442.217 19.7744C442.303 19.6026 442.408 19.4308 442.477 19.2418C442.547 19.0871 442.582 18.8981 442.616 18.7435C442.651 18.5545 442.668 18.3483 442.686 18.1421C442.686 18.0219 442.634 17.9016 442.634 17.7813C442.651 17.5236 442.634 17.2315 442.512 16.9566Z" fill="#869AAF"/>
<path fill-rule="evenodd" clip-rule="evenodd" d="M455.738 12.2834C455.72 12.1287 455.685 11.9741 455.668 11.8366V11.8194C455.633 11.6992 455.581 11.5961 455.546 11.4758C455.512 11.3899 455.494 11.304 455.46 11.2353C455.407 11.115 455.338 11.0119 455.268 10.9088C455.182 10.7885 455.112 10.6511 455.008 10.548C454.921 10.4277 454.817 10.3246 454.712 10.2387C454.625 10.1528 454.538 10.0841 454.452 10.0153C454.365 9.9466 454.26 9.89505 454.174 9.8435C454.035 9.75759 453.878 9.68886 453.739 9.62013C453.652 9.58577 453.548 9.56859 453.461 9.53422C453.322 9.46549 453.183 9.41395 453.009 9.41395C452.992 9.41395 452.974 9.41395 452.957 9.41395C452.783 9.37959 452.609 9.29367 452.436 9.29367C451.88 9.29367 451.306 9.20777 450.75 9.34522C450.628 9.37959 450.489 9.3624 450.35 9.39677C450.176 9.44831 449.985 9.46549 449.812 9.53422C449.69 9.58577 449.551 9.62014 449.412 9.67168C449.273 9.72323 449.151 9.77477 449.012 9.82632C448.96 9.8435 448.89 9.87787 448.838 9.91223C448.751 9.96378 448.665 10.0325 448.578 10.0841C448.439 10.17 448.282 10.2559 448.161 10.3418C448.074 10.4105 447.987 10.4792 447.917 10.548C447.796 10.6511 447.674 10.7542 447.535 10.8572C447.5 10.8916 447.465 10.926 447.396 10.9947V4.84351H447.205H443.555C443.364 4.84351 443.364 4.84351 443.364 5.03251V20.0325C443.364 20.5823 443.364 21.1322 443.364 21.682C443.364 21.8023 443.416 21.8538 443.538 21.8538C444.754 21.8538 445.971 21.8538 447.187 21.8538C447.326 21.8538 447.378 21.8023 447.378 21.6648C447.378 19.1218 447.378 16.5617 447.378 14.0188C447.378 13.9672 447.378 13.9328 447.378 13.8813C447.378 13.8641 447.396 13.8298 447.413 13.8126C447.535 13.6751 447.657 13.5377 447.778 13.4346C447.917 13.3143 448.056 13.2284 448.213 13.1425C448.3 13.0909 448.386 13.0394 448.473 12.9878C448.543 12.9535 448.63 12.9019 448.717 12.8847C448.821 12.8504 448.925 12.816 449.047 12.7988C449.238 12.7645 449.447 12.6957 449.638 12.6957C449.829 12.6786 450.037 12.7301 450.229 12.7473C450.42 12.7473 450.594 12.816 450.767 12.8676C450.924 12.9191 451.063 12.9878 451.184 13.0909C451.289 13.1768 451.41 13.2799 451.48 13.383C451.532 13.4861 451.619 13.5892 451.654 13.7267C451.688 13.8813 451.775 14.0359 451.775 14.2078C451.775 14.3796 451.775 14.5514 451.775 14.7232C451.775 17.0428 451.775 19.3452 451.775 21.6648C451.775 21.8194 451.827 21.871 451.984 21.871H455.581C455.599 21.871 455.633 21.871 455.651 21.871C455.738 21.8538 455.79 21.8194 455.79 21.7164C455.79 20.1356 455.807 18.572 455.79 17.0084C455.772 15.4105 455.877 13.8469 455.738 12.2834Z" fill="#869AAF"/>
<path fill-rule="evenodd" clip-rule="evenodd" d="M483.353 14.328C483.318 14.1562 483.3 13.9844 483.266 13.8125V13.7954C483.231 13.6579 483.179 13.5376 483.144 13.4002C483.109 13.2971 483.092 13.1768 483.057 13.0565C483.04 12.9878 483.022 12.9363 482.988 12.8847C482.953 12.7988 482.935 12.7301 482.901 12.6442C482.866 12.5754 482.831 12.5067 482.796 12.4208C482.727 12.2833 482.675 12.1631 482.623 12.0256C482.57 11.9397 482.518 11.8538 482.466 11.7507C482.414 11.6648 482.362 11.5617 482.292 11.4586C482.206 11.3383 482.067 11.218 481.997 11.0806C481.893 10.8916 481.736 10.7713 481.597 10.6339C481.458 10.4964 481.319 10.3761 481.163 10.2387C481.093 10.1871 481.024 10.1356 480.954 10.1012C480.867 10.0497 480.78 9.98093 480.676 9.92939C480.572 9.87784 480.485 9.80911 480.381 9.75757C480.259 9.70602 480.137 9.65447 480.016 9.60293C479.877 9.5342 479.738 9.46547 479.581 9.41392C479.408 9.36238 479.251 9.31083 479.077 9.27646C478.921 9.2421 478.747 9.20774 478.591 9.20774C478.295 9.19055 477.983 9.19055 477.687 9.20774C477.426 9.22492 477.166 9.25928 476.905 9.27646C476.888 9.27646 476.87 9.27646 476.853 9.29365C476.731 9.32801 476.61 9.37956 476.488 9.41392C476.384 9.44829 476.279 9.46547 476.193 9.49983C476.14 9.51702 476.088 9.55138 476.019 9.58574C475.949 9.62011 475.88 9.65447 475.828 9.68884C475.723 9.74038 475.602 9.77475 475.497 9.84348C475.324 9.96375 475.132 10.1012 474.976 10.2387C474.82 10.3761 474.663 10.5308 474.524 10.6682C474.437 10.7541 474.368 10.8229 474.298 10.9088C474.281 10.9088 474.281 10.8916 474.263 10.8916V4.82629H470.301V4.92939C470.301 10.5136 470.301 16.0978 470.301 21.682C470.301 21.8194 470.301 21.8366 470.458 21.8366C471.674 21.8366 472.908 21.8366 474.124 21.8366C474.263 21.8366 474.281 21.8194 474.281 21.682C474.281 21.3211 474.281 20.9431 474.281 20.5823C474.281 20.5308 474.281 20.4964 474.298 20.4277C474.35 20.4792 474.385 20.5136 474.42 20.5479C474.542 20.6682 474.663 20.8057 474.802 20.9259C474.924 21.0462 475.046 21.1493 475.185 21.2524C475.271 21.3211 475.376 21.3899 475.48 21.4586C475.584 21.5273 475.706 21.596 475.828 21.6476C475.932 21.6991 476.036 21.7507 476.158 21.8022C476.245 21.8366 476.349 21.8538 476.453 21.8881C476.592 21.9569 476.731 22.0084 476.888 22.0084C476.905 22.0084 476.922 22.0084 476.94 22.0256C477.096 22.1287 477.287 22.1115 477.461 22.1287C477.965 22.1459 478.452 22.1802 478.956 22.0771C479.095 22.0428 479.251 22.0256 479.408 22.0084H479.425C479.547 21.9741 479.651 21.9225 479.773 21.8881C479.859 21.8538 479.946 21.8366 480.033 21.8022C480.12 21.7679 480.224 21.7163 480.311 21.682C480.433 21.6304 480.537 21.5617 480.659 21.493C480.763 21.4242 480.867 21.3555 480.972 21.2868C481.093 21.2009 481.232 21.1493 481.337 21.0462C481.597 20.7713 481.927 20.5479 482.119 20.2043C482.223 20.0325 482.379 19.8778 482.501 19.706C482.605 19.5514 482.692 19.3796 482.779 19.2249C482.849 19.0703 482.918 18.9156 482.988 18.7438C483.04 18.6064 483.092 18.4861 483.127 18.3486C483.179 18.194 483.231 18.0565 483.266 17.9019C483.318 17.6785 483.37 17.4552 483.405 17.249C483.439 17.0256 483.457 16.8022 483.474 16.5789C483.474 16.5101 483.474 16.4242 483.474 16.3555C483.492 16.1493 483.439 15.9431 483.526 15.7541C483.561 15.6854 483.492 15.5823 483.492 15.4964C483.405 15.084 483.422 14.706 483.353 14.328ZM479.373 16.0806C479.373 16.218 479.338 16.3555 479.303 16.5101C479.269 16.6648 479.234 16.8194 479.164 16.9741C479.095 17.1287 479.008 17.2833 478.904 17.438C478.817 17.5754 478.73 17.7301 478.608 17.8675C478.504 17.9878 478.382 18.0737 478.261 18.1768C478.139 18.2799 478 18.3658 477.861 18.4345C477.791 18.4689 477.687 18.4861 477.6 18.5204C477.479 18.5548 477.374 18.6064 477.253 18.6407C477.235 18.6407 477.2 18.6579 477.183 18.6579C477.009 18.6579 476.818 18.6579 476.644 18.6579C476.471 18.6579 476.297 18.6751 476.123 18.6579C475.984 18.6407 475.862 18.5892 475.741 18.5376C475.654 18.5033 475.567 18.4861 475.497 18.4689C475.324 18.4002 475.15 18.3486 474.993 18.2283C474.889 18.1424 474.75 18.0737 474.646 17.9878C474.507 17.8847 474.403 17.7472 474.281 17.627C474.263 17.6098 474.263 17.5582 474.263 17.5239C474.263 16.3383 474.263 15.1528 474.263 13.95C474.263 13.8469 474.333 13.7438 474.403 13.6751C474.542 13.5376 474.715 13.4002 474.872 13.2799C475.011 13.194 475.167 13.1253 475.324 13.0565C475.463 12.9878 475.602 12.9191 475.758 12.8675C475.845 12.8332 475.932 12.816 476.001 12.7988C476.245 12.7644 476.505 12.7301 476.749 12.7301C476.922 12.7301 477.096 12.7644 477.27 12.7988C477.409 12.8332 477.565 12.8675 477.687 12.9363C477.896 13.0394 478.122 13.1253 478.278 13.2971C478.417 13.4345 478.573 13.5548 478.695 13.6923C478.765 13.7782 478.817 13.8813 478.886 13.9672C478.938 14.0703 479.008 14.1562 479.043 14.2593C479.077 14.3452 479.112 14.4311 479.147 14.517C479.182 14.6201 479.216 14.7232 479.269 14.8263C479.269 14.8435 479.286 14.8607 479.286 14.8607C479.39 15.2558 479.39 15.6682 479.373 16.0806Z" fill="#869AAF"/>
<path fill-rule="evenodd" clip-rule="evenodd" d="M501.983 15.0495C501.965 14.9292 501.983 14.809 501.965 14.6715C501.93 14.4997 501.878 14.345 501.844 14.1732C501.809 14.0358 501.791 13.8983 501.757 13.7609V13.7437C501.687 13.5719 501.635 13.4172 501.565 13.2454C501.513 13.1079 501.461 12.9705 501.426 12.833C501.409 12.7643 501.374 12.6956 501.34 12.644C501.253 12.4894 501.183 12.3347 501.096 12.1801C501.061 12.1286 501.027 12.077 500.975 12.0083C500.905 11.9052 500.836 11.8021 500.749 11.699C500.662 11.5787 500.592 11.4585 500.488 11.3382C500.401 11.2179 500.297 11.1148 500.193 11.0289C500.036 10.8743 499.897 10.7368 499.723 10.5993C499.515 10.4275 499.306 10.2729 499.08 10.1354C498.872 10.0152 498.663 9.89488 498.455 9.79179C498.316 9.72306 498.177 9.6887 498.038 9.63715C497.968 9.60279 497.881 9.5856 497.812 9.56842C497.725 9.53406 497.62 9.48251 497.534 9.44814C497.36 9.3966 497.169 9.34505 496.977 9.31069C496.786 9.27633 496.595 9.24196 496.421 9.24196C495.813 9.24196 495.205 9.17323 494.597 9.29351C494.423 9.32787 494.232 9.34505 494.04 9.37942C494.04 9.37942 494.04 9.37942 494.023 9.37942C493.867 9.41378 493.71 9.46533 493.554 9.51688C493.537 9.51688 493.537 9.51688 493.519 9.51688C493.415 9.55124 493.293 9.60279 493.189 9.63715C493.119 9.67151 493.033 9.6887 492.963 9.72306C492.841 9.77461 492.737 9.84333 492.633 9.89488C492.459 9.98079 492.268 10.0667 492.111 10.1698C491.92 10.2901 491.729 10.3932 491.555 10.5306C491.382 10.6681 491.225 10.8055 491.069 10.9602C490.964 11.0633 490.86 11.1664 490.773 11.2866C490.652 11.4241 490.495 11.5444 490.408 11.7334C490.356 11.8536 490.235 11.9396 490.165 12.0598C490.096 12.1457 490.061 12.2488 490.009 12.3347C489.922 12.4894 489.835 12.6268 489.765 12.7815C489.731 12.8502 489.713 12.9189 489.678 13.0048C489.644 13.0908 489.609 13.1939 489.557 13.2798C489.539 13.2969 489.539 13.3313 489.522 13.3485C489.487 13.4344 489.453 13.5203 489.418 13.6062C489.383 13.7265 489.366 13.8468 489.331 13.9499C489.296 14.0701 489.244 14.1904 489.209 14.3279C489.174 14.4653 489.174 14.6028 489.14 14.7231C489.088 14.9808 489.07 15.2385 489.07 15.4963C489.07 15.754 489.105 16.0117 489.122 16.2523C489.14 16.5272 489.174 16.8021 489.209 17.077C489.209 17.0942 489.209 17.0942 489.209 17.1114C489.244 17.266 489.296 17.4035 489.331 17.5581C489.366 17.6612 489.383 17.7643 489.4 17.8674C489.418 17.9361 489.435 18.0048 489.47 18.0736C489.505 18.1767 489.557 18.2626 489.592 18.3657C489.626 18.4344 489.644 18.5203 489.678 18.589C489.731 18.6921 489.8 18.8124 489.852 18.9155C489.939 19.0701 490.009 19.2076 490.113 19.3622C490.217 19.5169 490.356 19.6543 490.46 19.809C490.6 20.0323 490.808 20.2042 490.999 20.3932C491.121 20.4963 491.243 20.6165 491.364 20.7196C491.416 20.7712 491.468 20.8227 491.521 20.8571C491.677 20.9602 491.851 21.0461 492.007 21.1492C492.164 21.2523 492.32 21.3382 492.494 21.4069C492.546 21.4241 492.598 21.4584 492.65 21.4756C492.72 21.51 492.789 21.5615 492.876 21.5959C492.963 21.6303 493.05 21.6475 493.137 21.6818C493.258 21.7162 493.38 21.7677 493.502 21.8193C493.606 21.8536 493.693 21.8708 493.797 21.9052C493.919 21.9395 494.04 21.9911 494.18 22.0255C494.284 22.0426 494.405 22.0598 494.51 22.077C494.701 22.1285 494.909 22.1457 495.101 22.1457C495.709 22.1286 496.317 22.2145 496.925 22.0942C497.186 22.0426 497.429 22.0426 497.69 22.0083C497.707 22.0083 497.725 22.0083 497.742 21.9911C497.899 21.9567 498.055 21.9052 498.211 21.8708C498.333 21.8365 498.455 21.8193 498.576 21.7849C498.663 21.7677 498.75 21.7334 498.82 21.7162C498.941 21.6818 499.046 21.6303 499.167 21.5959C499.237 21.5615 499.324 21.5444 499.393 21.51C499.48 21.4756 499.55 21.4241 499.636 21.3897C499.706 21.3554 499.793 21.3382 499.862 21.3038C499.984 21.2523 500.088 21.1835 500.193 21.132C500.245 21.0976 500.297 21.0804 500.349 21.0461C500.453 20.9773 500.54 20.8571 500.662 20.8055C500.818 20.7368 500.922 20.5993 501.044 20.4791C501.009 20.4619 500.992 20.4619 500.975 20.4447C500.888 20.3072 500.783 20.1526 500.697 20.0151C500.627 19.8949 500.557 19.7746 500.471 19.6543C500.366 19.4997 500.245 19.3622 500.14 19.2076C500.071 19.0873 500.001 18.967 499.932 18.8639C499.828 18.6921 499.706 18.5375 499.584 18.3828C499.515 18.2798 499.445 18.1767 499.376 18.0736C499.289 17.9361 499.289 17.9361 499.167 18.0392C499.115 18.0908 499.046 18.1251 498.993 18.1767C498.907 18.2282 498.802 18.2798 498.715 18.3313C498.594 18.4 498.489 18.4516 498.368 18.5203C498.298 18.5547 498.211 18.5719 498.142 18.6062C498.003 18.6578 497.846 18.7437 497.707 18.778C497.568 18.8124 497.429 18.8296 497.29 18.8639C497.273 18.8639 497.273 18.8639 497.256 18.8639C497.064 18.9499 496.856 18.967 496.647 18.9842C496.282 19.0014 495.917 19.053 495.552 18.9327C495.431 18.8983 495.309 18.9155 495.205 18.8639C495.066 18.8124 494.927 18.7952 494.788 18.7265C494.684 18.6749 494.562 18.6406 494.458 18.589C494.266 18.5031 494.11 18.4 493.954 18.2454C493.884 18.1767 493.815 18.1251 493.762 18.0564C493.745 18.0392 493.728 18.0048 493.71 17.9877C493.589 17.8502 493.467 17.7127 493.397 17.5409C493.38 17.4894 493.328 17.4206 493.311 17.3691C493.258 17.266 493.224 17.1457 493.172 17.0255C493.258 17.0255 493.311 17.0255 493.363 17.0255C496.195 17.0255 499.011 17.0255 501.844 17.0255C502 17.0255 502.017 17.0255 502.017 16.8708C502.017 16.2351 502.104 15.6509 501.983 15.0495ZM493.137 14.2935C493.154 14.2248 493.189 14.156 493.206 14.0873C493.224 14.0014 493.258 13.9327 493.276 13.8468C493.328 13.6234 493.45 13.4516 493.606 13.2798C493.693 13.1939 493.745 13.0736 493.849 13.0048C493.954 12.9018 494.093 12.833 494.214 12.7643C494.319 12.6956 494.44 12.6268 494.562 12.5753C494.631 12.5409 494.718 12.5066 494.805 12.5066C495.031 12.4722 495.257 12.4378 495.5 12.4207C495.709 12.4035 495.935 12.4035 496.143 12.4207C496.3 12.4378 496.474 12.455 496.63 12.4894C496.769 12.5237 496.908 12.5753 497.047 12.6268C497.134 12.6612 497.221 12.7128 497.29 12.7643C497.447 12.8674 497.603 12.9705 497.742 13.1079C497.846 13.211 497.916 13.3485 497.985 13.4688C498.055 13.5719 498.124 13.6749 498.177 13.7952C498.229 13.9499 498.246 14.1217 498.281 14.3107H493.137V14.2935Z" fill="#869AAF"/>
<path fill-rule="evenodd" clip-rule="evenodd" d="M484.343 4.99854V21.6996C484.343 21.8714 484.343 21.8714 484.517 21.8714C485.716 21.8714 486.933 21.8714 488.132 21.8714C488.306 21.8714 488.306 21.8714 488.306 21.6996V4.98136V4.86108H484.343V4.99854Z" fill="#869AAF"/>
<defs>
<clipPath id="clip0">
<rect width="39.8242" height="20.5714" fill="white" transform="translate(181.444 3.21436)"/>
</clipPath>
</defs>
</svg>
