<svg width="20" height="20" viewBox="0 0 20 20" fill="none" xmlns="http://www.w3.org/2000/svg">
<path fill-rule="evenodd" clip-rule="evenodd" d="M18.125 5C18.125 4.48223 17.6765 4.0625 17.1233 4.0625H2.8767C2.32347 4.0625 1.87499 4.48223 1.87499 5C1.87499 5.51777 2.32347 5.9375 2.8767 5.9375H17.1233C17.6765 5.9375 18.125 5.51777 18.125 5ZM18.125 10C18.125 9.48223 17.6765 9.0625 17.1233 9.0625H2.8767C2.32347 9.0625 1.87499 9.48223 1.87499 10C1.87499 10.5178 2.32347 10.9375 2.8767 10.9375H17.1233C17.6765 10.9375 18.125 10.5178 18.125 10ZM18.125 15C18.125 14.4822 17.6765 14.0625 17.1233 14.0625H2.8767C2.32347 14.0625 1.87499 14.4822 1.87499 15C1.87499 15.5178 2.32347 15.9375 2.8767 15.9375H17.1233C17.6765 15.9375 18.125 15.5178 18.125 15Z" fill="#242424"/>
</svg>
